%TF.GenerationSoftware,KiCad,Pcbnew,7.0.9*%
%TF.CreationDate,2024-03-27T20:05:08+00:00*%
%TF.ProjectId,USBHIDAdapter,55534248-4944-4416-9461-707465722e6b,rev?*%
%TF.SameCoordinates,Original*%
%TF.FileFunction,Legend,Top*%
%TF.FilePolarity,Positive*%
%FSLAX46Y46*%
G04 Gerber Fmt 4.6, Leading zero omitted, Abs format (unit mm)*
G04 Created by KiCad (PCBNEW 7.0.9) date 2024-03-27 20:05:08*
%MOMM*%
%LPD*%
G01*
G04 APERTURE LIST*
%ADD10C,0.150000*%
%ADD11C,0.120000*%
G04 APERTURE END LIST*
D10*
X138350666Y-81793019D02*
X138350666Y-82507304D01*
X138350666Y-82507304D02*
X138303047Y-82650161D01*
X138303047Y-82650161D02*
X138207809Y-82745400D01*
X138207809Y-82745400D02*
X138064952Y-82793019D01*
X138064952Y-82793019D02*
X137969714Y-82793019D01*
X138779238Y-81888257D02*
X138826857Y-81840638D01*
X138826857Y-81840638D02*
X138922095Y-81793019D01*
X138922095Y-81793019D02*
X139160190Y-81793019D01*
X139160190Y-81793019D02*
X139255428Y-81840638D01*
X139255428Y-81840638D02*
X139303047Y-81888257D01*
X139303047Y-81888257D02*
X139350666Y-81983495D01*
X139350666Y-81983495D02*
X139350666Y-82078733D01*
X139350666Y-82078733D02*
X139303047Y-82221590D01*
X139303047Y-82221590D02*
X138731619Y-82793019D01*
X138731619Y-82793019D02*
X139350666Y-82793019D01*
X121143228Y-90366790D02*
X121619419Y-90366790D01*
X120619419Y-90700123D02*
X121143228Y-90366790D01*
X121143228Y-90366790D02*
X120619419Y-90033457D01*
X121619419Y-89176314D02*
X121619419Y-89747742D01*
X121619419Y-89462028D02*
X120619419Y-89462028D01*
X120619419Y-89462028D02*
X120762276Y-89557266D01*
X120762276Y-89557266D02*
X120857514Y-89652504D01*
X120857514Y-89652504D02*
X120905133Y-89747742D01*
X129006695Y-83851019D02*
X129006695Y-84660542D01*
X129006695Y-84660542D02*
X129054314Y-84755780D01*
X129054314Y-84755780D02*
X129101933Y-84803400D01*
X129101933Y-84803400D02*
X129197171Y-84851019D01*
X129197171Y-84851019D02*
X129387647Y-84851019D01*
X129387647Y-84851019D02*
X129482885Y-84803400D01*
X129482885Y-84803400D02*
X129530504Y-84755780D01*
X129530504Y-84755780D02*
X129578123Y-84660542D01*
X129578123Y-84660542D02*
X129578123Y-83851019D01*
X130578123Y-84851019D02*
X130006695Y-84851019D01*
X130292409Y-84851019D02*
X130292409Y-83851019D01*
X130292409Y-83851019D02*
X130197171Y-83993876D01*
X130197171Y-83993876D02*
X130101933Y-84089114D01*
X130101933Y-84089114D02*
X130006695Y-84136733D01*
X138074495Y-94552419D02*
X138074495Y-95361942D01*
X138074495Y-95361942D02*
X138122114Y-95457180D01*
X138122114Y-95457180D02*
X138169733Y-95504800D01*
X138169733Y-95504800D02*
X138264971Y-95552419D01*
X138264971Y-95552419D02*
X138455447Y-95552419D01*
X138455447Y-95552419D02*
X138550685Y-95504800D01*
X138550685Y-95504800D02*
X138598304Y-95457180D01*
X138598304Y-95457180D02*
X138645923Y-95361942D01*
X138645923Y-95361942D02*
X138645923Y-94552419D01*
X139074495Y-94647657D02*
X139122114Y-94600038D01*
X139122114Y-94600038D02*
X139217352Y-94552419D01*
X139217352Y-94552419D02*
X139455447Y-94552419D01*
X139455447Y-94552419D02*
X139550685Y-94600038D01*
X139550685Y-94600038D02*
X139598304Y-94647657D01*
X139598304Y-94647657D02*
X139645923Y-94742895D01*
X139645923Y-94742895D02*
X139645923Y-94838133D01*
X139645923Y-94838133D02*
X139598304Y-94980990D01*
X139598304Y-94980990D02*
X139026876Y-95552419D01*
X139026876Y-95552419D02*
X139645923Y-95552419D01*
D11*
%TO.C,J2*%
X137354000Y-83338200D02*
X138684000Y-83338200D01*
X137354000Y-84668200D02*
X137354000Y-83338200D01*
X137354000Y-85938200D02*
X137354000Y-93618200D01*
X137354000Y-85938200D02*
X140014000Y-85938200D01*
X137354000Y-93618200D02*
X140014000Y-93618200D01*
X140014000Y-85938200D02*
X140014000Y-93618200D01*
%TO.C,Y1*%
X121964600Y-91890600D02*
X123964600Y-91890600D01*
X123964600Y-91890600D02*
X124364600Y-91890600D01*
X121964600Y-91690600D02*
X121964600Y-90690600D01*
X123964600Y-91690600D02*
X121964600Y-91690600D01*
X123964600Y-91690600D02*
X124364600Y-91690600D01*
X124364600Y-90690600D02*
X124364600Y-91690600D01*
X124364600Y-90690600D02*
X124764600Y-90690600D01*
X121964600Y-88890600D02*
X121964600Y-88090600D01*
X121964600Y-88090600D02*
X123964600Y-88090600D01*
X123964600Y-88090600D02*
X124364600Y-88090600D01*
X124364600Y-88090600D02*
X124364600Y-88890600D01*
%TO.C,F1*%
X133459136Y-83037000D02*
X134663264Y-83037000D01*
X133459136Y-84857000D02*
X134663264Y-84857000D01*
%TO.C,J3*%
X122815000Y-76707100D02*
X122815000Y-68167100D01*
X122815000Y-80407100D02*
X122815000Y-82387100D01*
X133175000Y-83267100D02*
X134175000Y-83267100D01*
X133675000Y-82767100D02*
X133175000Y-83267100D01*
X134175000Y-83267100D02*
X133675000Y-82767100D01*
X137535000Y-68167100D02*
X122815000Y-68167100D01*
X137535000Y-76707100D02*
X137535000Y-68167100D01*
X137535000Y-82387100D02*
X122815000Y-82387100D01*
X137535000Y-82387100D02*
X137535000Y-80407100D01*
%TO.C,J1*%
X137138333Y-101498400D02*
X137138333Y-99258400D01*
X137138333Y-99258400D02*
X132945000Y-99258400D01*
X136898333Y-103238400D02*
X136898333Y-99498400D01*
X136898333Y-99498400D02*
X123451667Y-99498400D01*
X123451667Y-99498400D02*
X123451667Y-103238400D01*
%TO.C,U1*%
X126158600Y-86636200D02*
X126158600Y-87086200D01*
X126158600Y-87086200D02*
X124868600Y-87086200D01*
X126158600Y-93856200D02*
X126158600Y-93406200D01*
X126608600Y-86636200D02*
X126158600Y-86636200D01*
X126608600Y-93856200D02*
X126158600Y-93856200D01*
X132928600Y-86636200D02*
X133378600Y-86636200D01*
X132928600Y-93856200D02*
X133378600Y-93856200D01*
X133378600Y-86636200D02*
X133378600Y-87086200D01*
X133378600Y-93856200D02*
X133378600Y-93406200D01*
%TO.C,U2*%
X137709000Y-98751600D02*
X136569000Y-98751600D01*
X136569000Y-98981600D02*
X136569000Y-98751600D01*
X136569000Y-98981600D02*
X133849000Y-98981600D01*
X136569000Y-94261600D02*
X136569000Y-94491600D01*
X133849000Y-98981600D02*
X133849000Y-97671600D01*
X133849000Y-95571600D02*
X133849000Y-94261600D01*
X133849000Y-94261600D02*
X136569000Y-94261600D01*
%TD*%
M02*
