%TF.GenerationSoftware,KiCad,Pcbnew,7.0.9*%
%TF.CreationDate,2024-03-27T20:05:08+00:00*%
%TF.ProjectId,USBHIDAdapter,55534248-4944-4416-9461-707465722e6b,rev?*%
%TF.SameCoordinates,Original*%
%TF.FileFunction,Legend,Bot*%
%TF.FilePolarity,Positive*%
%FSLAX46Y46*%
G04 Gerber Fmt 4.6, Leading zero omitted, Abs format (unit mm)*
G04 Created by KiCad (PCBNEW 7.0.9) date 2024-03-27 20:05:08*
%MOMM*%
%LPD*%
G01*
G04 APERTURE LIST*
%ADD10C,0.150000*%
%ADD11C,0.120000*%
G04 APERTURE END LIST*
D10*
X137410380Y-97394733D02*
X137458000Y-97347114D01*
X137458000Y-97347114D02*
X137505619Y-97204257D01*
X137505619Y-97204257D02*
X137505619Y-97109019D01*
X137505619Y-97109019D02*
X137458000Y-96966162D01*
X137458000Y-96966162D02*
X137362761Y-96870924D01*
X137362761Y-96870924D02*
X137267523Y-96823305D01*
X137267523Y-96823305D02*
X137077047Y-96775686D01*
X137077047Y-96775686D02*
X136934190Y-96775686D01*
X136934190Y-96775686D02*
X136743714Y-96823305D01*
X136743714Y-96823305D02*
X136648476Y-96870924D01*
X136648476Y-96870924D02*
X136553238Y-96966162D01*
X136553238Y-96966162D02*
X136505619Y-97109019D01*
X136505619Y-97109019D02*
X136505619Y-97204257D01*
X136505619Y-97204257D02*
X136553238Y-97347114D01*
X136553238Y-97347114D02*
X136600857Y-97394733D01*
X137505619Y-98347114D02*
X137505619Y-97775686D01*
X137505619Y-98061400D02*
X136505619Y-98061400D01*
X136505619Y-98061400D02*
X136648476Y-97966162D01*
X136648476Y-97966162D02*
X136743714Y-97870924D01*
X136743714Y-97870924D02*
X136791333Y-97775686D01*
X128233466Y-86922780D02*
X128281085Y-86970400D01*
X128281085Y-86970400D02*
X128423942Y-87018019D01*
X128423942Y-87018019D02*
X128519180Y-87018019D01*
X128519180Y-87018019D02*
X128662037Y-86970400D01*
X128662037Y-86970400D02*
X128757275Y-86875161D01*
X128757275Y-86875161D02*
X128804894Y-86779923D01*
X128804894Y-86779923D02*
X128852513Y-86589447D01*
X128852513Y-86589447D02*
X128852513Y-86446590D01*
X128852513Y-86446590D02*
X128804894Y-86256114D01*
X128804894Y-86256114D02*
X128757275Y-86160876D01*
X128757275Y-86160876D02*
X128662037Y-86065638D01*
X128662037Y-86065638D02*
X128519180Y-86018019D01*
X128519180Y-86018019D02*
X128423942Y-86018019D01*
X128423942Y-86018019D02*
X128281085Y-86065638D01*
X128281085Y-86065638D02*
X128233466Y-86113257D01*
X127852513Y-86113257D02*
X127804894Y-86065638D01*
X127804894Y-86065638D02*
X127709656Y-86018019D01*
X127709656Y-86018019D02*
X127471561Y-86018019D01*
X127471561Y-86018019D02*
X127376323Y-86065638D01*
X127376323Y-86065638D02*
X127328704Y-86113257D01*
X127328704Y-86113257D02*
X127281085Y-86208495D01*
X127281085Y-86208495D02*
X127281085Y-86303733D01*
X127281085Y-86303733D02*
X127328704Y-86446590D01*
X127328704Y-86446590D02*
X127900132Y-87018019D01*
X127900132Y-87018019D02*
X127281085Y-87018019D01*
X138162180Y-94041933D02*
X138209800Y-93994314D01*
X138209800Y-93994314D02*
X138257419Y-93851457D01*
X138257419Y-93851457D02*
X138257419Y-93756219D01*
X138257419Y-93756219D02*
X138209800Y-93613362D01*
X138209800Y-93613362D02*
X138114561Y-93518124D01*
X138114561Y-93518124D02*
X138019323Y-93470505D01*
X138019323Y-93470505D02*
X137828847Y-93422886D01*
X137828847Y-93422886D02*
X137685990Y-93422886D01*
X137685990Y-93422886D02*
X137495514Y-93470505D01*
X137495514Y-93470505D02*
X137400276Y-93518124D01*
X137400276Y-93518124D02*
X137305038Y-93613362D01*
X137305038Y-93613362D02*
X137257419Y-93756219D01*
X137257419Y-93756219D02*
X137257419Y-93851457D01*
X137257419Y-93851457D02*
X137305038Y-93994314D01*
X137305038Y-93994314D02*
X137352657Y-94041933D01*
X137590752Y-94899076D02*
X138257419Y-94899076D01*
X137209800Y-94660981D02*
X137924085Y-94422886D01*
X137924085Y-94422886D02*
X137924085Y-95041933D01*
X132170466Y-91469380D02*
X132218085Y-91517000D01*
X132218085Y-91517000D02*
X132360942Y-91564619D01*
X132360942Y-91564619D02*
X132456180Y-91564619D01*
X132456180Y-91564619D02*
X132599037Y-91517000D01*
X132599037Y-91517000D02*
X132694275Y-91421761D01*
X132694275Y-91421761D02*
X132741894Y-91326523D01*
X132741894Y-91326523D02*
X132789513Y-91136047D01*
X132789513Y-91136047D02*
X132789513Y-90993190D01*
X132789513Y-90993190D02*
X132741894Y-90802714D01*
X132741894Y-90802714D02*
X132694275Y-90707476D01*
X132694275Y-90707476D02*
X132599037Y-90612238D01*
X132599037Y-90612238D02*
X132456180Y-90564619D01*
X132456180Y-90564619D02*
X132360942Y-90564619D01*
X132360942Y-90564619D02*
X132218085Y-90612238D01*
X132218085Y-90612238D02*
X132170466Y-90659857D01*
X131313323Y-90564619D02*
X131503799Y-90564619D01*
X131503799Y-90564619D02*
X131599037Y-90612238D01*
X131599037Y-90612238D02*
X131646656Y-90659857D01*
X131646656Y-90659857D02*
X131741894Y-90802714D01*
X131741894Y-90802714D02*
X131789513Y-90993190D01*
X131789513Y-90993190D02*
X131789513Y-91374142D01*
X131789513Y-91374142D02*
X131741894Y-91469380D01*
X131741894Y-91469380D02*
X131694275Y-91517000D01*
X131694275Y-91517000D02*
X131599037Y-91564619D01*
X131599037Y-91564619D02*
X131408561Y-91564619D01*
X131408561Y-91564619D02*
X131313323Y-91517000D01*
X131313323Y-91517000D02*
X131265704Y-91469380D01*
X131265704Y-91469380D02*
X131218085Y-91374142D01*
X131218085Y-91374142D02*
X131218085Y-91136047D01*
X131218085Y-91136047D02*
X131265704Y-91040809D01*
X131265704Y-91040809D02*
X131313323Y-90993190D01*
X131313323Y-90993190D02*
X131408561Y-90945571D01*
X131408561Y-90945571D02*
X131599037Y-90945571D01*
X131599037Y-90945571D02*
X131694275Y-90993190D01*
X131694275Y-90993190D02*
X131741894Y-91040809D01*
X131741894Y-91040809D02*
X131789513Y-91136047D01*
X131067980Y-87971333D02*
X131115600Y-87923714D01*
X131115600Y-87923714D02*
X131163219Y-87780857D01*
X131163219Y-87780857D02*
X131163219Y-87685619D01*
X131163219Y-87685619D02*
X131115600Y-87542762D01*
X131115600Y-87542762D02*
X131020361Y-87447524D01*
X131020361Y-87447524D02*
X130925123Y-87399905D01*
X130925123Y-87399905D02*
X130734647Y-87352286D01*
X130734647Y-87352286D02*
X130591790Y-87352286D01*
X130591790Y-87352286D02*
X130401314Y-87399905D01*
X130401314Y-87399905D02*
X130306076Y-87447524D01*
X130306076Y-87447524D02*
X130210838Y-87542762D01*
X130210838Y-87542762D02*
X130163219Y-87685619D01*
X130163219Y-87685619D02*
X130163219Y-87780857D01*
X130163219Y-87780857D02*
X130210838Y-87923714D01*
X130210838Y-87923714D02*
X130258457Y-87971333D01*
X130163219Y-88304667D02*
X130163219Y-88923714D01*
X130163219Y-88923714D02*
X130544171Y-88590381D01*
X130544171Y-88590381D02*
X130544171Y-88733238D01*
X130544171Y-88733238D02*
X130591790Y-88828476D01*
X130591790Y-88828476D02*
X130639409Y-88876095D01*
X130639409Y-88876095D02*
X130734647Y-88923714D01*
X130734647Y-88923714D02*
X130972742Y-88923714D01*
X130972742Y-88923714D02*
X131067980Y-88876095D01*
X131067980Y-88876095D02*
X131115600Y-88828476D01*
X131115600Y-88828476D02*
X131163219Y-88733238D01*
X131163219Y-88733238D02*
X131163219Y-88447524D01*
X131163219Y-88447524D02*
X131115600Y-88352286D01*
X131115600Y-88352286D02*
X131067980Y-88304667D01*
X126462980Y-93533933D02*
X126510600Y-93486314D01*
X126510600Y-93486314D02*
X126558219Y-93343457D01*
X126558219Y-93343457D02*
X126558219Y-93248219D01*
X126558219Y-93248219D02*
X126510600Y-93105362D01*
X126510600Y-93105362D02*
X126415361Y-93010124D01*
X126415361Y-93010124D02*
X126320123Y-92962505D01*
X126320123Y-92962505D02*
X126129647Y-92914886D01*
X126129647Y-92914886D02*
X125986790Y-92914886D01*
X125986790Y-92914886D02*
X125796314Y-92962505D01*
X125796314Y-92962505D02*
X125701076Y-93010124D01*
X125701076Y-93010124D02*
X125605838Y-93105362D01*
X125605838Y-93105362D02*
X125558219Y-93248219D01*
X125558219Y-93248219D02*
X125558219Y-93343457D01*
X125558219Y-93343457D02*
X125605838Y-93486314D01*
X125605838Y-93486314D02*
X125653457Y-93533933D01*
X125558219Y-94438695D02*
X125558219Y-93962505D01*
X125558219Y-93962505D02*
X126034409Y-93914886D01*
X126034409Y-93914886D02*
X125986790Y-93962505D01*
X125986790Y-93962505D02*
X125939171Y-94057743D01*
X125939171Y-94057743D02*
X125939171Y-94295838D01*
X125939171Y-94295838D02*
X125986790Y-94391076D01*
X125986790Y-94391076D02*
X126034409Y-94438695D01*
X126034409Y-94438695D02*
X126129647Y-94486314D01*
X126129647Y-94486314D02*
X126367742Y-94486314D01*
X126367742Y-94486314D02*
X126462980Y-94438695D01*
X126462980Y-94438695D02*
X126510600Y-94391076D01*
X126510600Y-94391076D02*
X126558219Y-94295838D01*
X126558219Y-94295838D02*
X126558219Y-94057743D01*
X126558219Y-94057743D02*
X126510600Y-93962505D01*
X126510600Y-93962505D02*
X126462980Y-93914886D01*
X126642019Y-90104933D02*
X126165828Y-89771600D01*
X126642019Y-89533505D02*
X125642019Y-89533505D01*
X125642019Y-89533505D02*
X125642019Y-89914457D01*
X125642019Y-89914457D02*
X125689638Y-90009695D01*
X125689638Y-90009695D02*
X125737257Y-90057314D01*
X125737257Y-90057314D02*
X125832495Y-90104933D01*
X125832495Y-90104933D02*
X125975352Y-90104933D01*
X125975352Y-90104933D02*
X126070590Y-90057314D01*
X126070590Y-90057314D02*
X126118209Y-90009695D01*
X126118209Y-90009695D02*
X126165828Y-89914457D01*
X126165828Y-89914457D02*
X126165828Y-89533505D01*
X125737257Y-90485886D02*
X125689638Y-90533505D01*
X125689638Y-90533505D02*
X125642019Y-90628743D01*
X125642019Y-90628743D02*
X125642019Y-90866838D01*
X125642019Y-90866838D02*
X125689638Y-90962076D01*
X125689638Y-90962076D02*
X125737257Y-91009695D01*
X125737257Y-91009695D02*
X125832495Y-91057314D01*
X125832495Y-91057314D02*
X125927733Y-91057314D01*
X125927733Y-91057314D02*
X126070590Y-91009695D01*
X126070590Y-91009695D02*
X126642019Y-90438267D01*
X126642019Y-90438267D02*
X126642019Y-91057314D01*
X130763180Y-90028733D02*
X130810800Y-89981114D01*
X130810800Y-89981114D02*
X130858419Y-89838257D01*
X130858419Y-89838257D02*
X130858419Y-89743019D01*
X130858419Y-89743019D02*
X130810800Y-89600162D01*
X130810800Y-89600162D02*
X130715561Y-89504924D01*
X130715561Y-89504924D02*
X130620323Y-89457305D01*
X130620323Y-89457305D02*
X130429847Y-89409686D01*
X130429847Y-89409686D02*
X130286990Y-89409686D01*
X130286990Y-89409686D02*
X130096514Y-89457305D01*
X130096514Y-89457305D02*
X130001276Y-89504924D01*
X130001276Y-89504924D02*
X129906038Y-89600162D01*
X129906038Y-89600162D02*
X129858419Y-89743019D01*
X129858419Y-89743019D02*
X129858419Y-89838257D01*
X129858419Y-89838257D02*
X129906038Y-89981114D01*
X129906038Y-89981114D02*
X129953657Y-90028733D01*
X130858419Y-90504924D02*
X130858419Y-90695400D01*
X130858419Y-90695400D02*
X130810800Y-90790638D01*
X130810800Y-90790638D02*
X130763180Y-90838257D01*
X130763180Y-90838257D02*
X130620323Y-90933495D01*
X130620323Y-90933495D02*
X130429847Y-90981114D01*
X130429847Y-90981114D02*
X130048895Y-90981114D01*
X130048895Y-90981114D02*
X129953657Y-90933495D01*
X129953657Y-90933495D02*
X129906038Y-90885876D01*
X129906038Y-90885876D02*
X129858419Y-90790638D01*
X129858419Y-90790638D02*
X129858419Y-90600162D01*
X129858419Y-90600162D02*
X129906038Y-90504924D01*
X129906038Y-90504924D02*
X129953657Y-90457305D01*
X129953657Y-90457305D02*
X130048895Y-90409686D01*
X130048895Y-90409686D02*
X130286990Y-90409686D01*
X130286990Y-90409686D02*
X130382228Y-90457305D01*
X130382228Y-90457305D02*
X130429847Y-90504924D01*
X130429847Y-90504924D02*
X130477466Y-90600162D01*
X130477466Y-90600162D02*
X130477466Y-90790638D01*
X130477466Y-90790638D02*
X130429847Y-90885876D01*
X130429847Y-90885876D02*
X130382228Y-90933495D01*
X130382228Y-90933495D02*
X130286990Y-90981114D01*
D11*
%TO.C,C1*%
X138990800Y-97415133D02*
X138990800Y-97707667D01*
X137970800Y-97415133D02*
X137970800Y-97707667D01*
%TO.C,C2*%
X127945933Y-87374000D02*
X128238467Y-87374000D01*
X127945933Y-88394000D02*
X128238467Y-88394000D01*
%TO.C,C4*%
X135862600Y-94354867D02*
X135862600Y-94062333D01*
X136882600Y-94354867D02*
X136882600Y-94062333D01*
%TO.C,C6*%
X131743667Y-92991400D02*
X131451133Y-92991400D01*
X131743667Y-91971400D02*
X131451133Y-91971400D01*
%TO.C,C3*%
X132666200Y-88652133D02*
X132666200Y-88944667D01*
X131646200Y-88652133D02*
X131646200Y-88944667D01*
%TO.C,C5*%
X128043400Y-93554333D02*
X128043400Y-93846867D01*
X127023400Y-93554333D02*
X127023400Y-93846867D01*
%TO.C,R2*%
X126934700Y-90602524D02*
X126934700Y-90093076D01*
X127979700Y-90602524D02*
X127979700Y-90093076D01*
%TO.C,C9*%
X129440400Y-90201533D02*
X129440400Y-90494067D01*
X128420400Y-90201533D02*
X128420400Y-90494067D01*
%TD*%
M02*
