%TF.GenerationSoftware,KiCad,Pcbnew,7.0.9*%
%TF.CreationDate,2024-03-27T20:05:08+00:00*%
%TF.ProjectId,USBHIDAdapter,55534248-4944-4416-9461-707465722e6b,rev?*%
%TF.SameCoordinates,Original*%
%TF.FileFunction,Soldermask,Top*%
%TF.FilePolarity,Negative*%
%FSLAX46Y46*%
G04 Gerber Fmt 4.6, Leading zero omitted, Abs format (unit mm)*
G04 Created by KiCad (PCBNEW 7.0.9) date 2024-03-27 20:05:08*
%MOMM*%
%LPD*%
G01*
G04 APERTURE LIST*
G04 APERTURE END LIST*
G36*
X125558334Y-103238400D02*
G01*
X123711666Y-103238400D01*
X123711666Y-99758400D01*
X125558334Y-99758400D01*
X125558334Y-103238400D01*
G37*
G36*
X128328334Y-103238400D02*
G01*
X126481666Y-103238400D01*
X126481666Y-99758400D01*
X128328334Y-99758400D01*
X128328334Y-103238400D01*
G37*
G36*
X131098334Y-103238400D02*
G01*
X129251666Y-103238400D01*
X129251666Y-99758400D01*
X131098334Y-99758400D01*
X131098334Y-103238400D01*
G37*
G36*
X133868334Y-103238400D02*
G01*
X132021666Y-103238400D01*
X132021666Y-99758400D01*
X133868334Y-99758400D01*
X133868334Y-103238400D01*
G37*
G36*
X136638334Y-103238400D02*
G01*
X134791666Y-103238400D01*
X134791666Y-99758400D01*
X136638334Y-99758400D01*
X136638334Y-103238400D01*
G37*
G36*
X137809000Y-98571600D02*
G01*
X136509000Y-98571600D01*
X136509000Y-97671600D01*
X137809000Y-97671600D01*
X137809000Y-98571600D01*
G37*
G36*
X136334000Y-95761008D02*
G01*
X136334000Y-96136453D01*
X136369147Y-96171600D01*
X137803092Y-96171600D01*
X137809000Y-96171600D01*
X137809000Y-97071600D01*
X137803092Y-97071600D01*
X136369147Y-97071600D01*
X136334000Y-97106747D01*
X136334000Y-97488100D01*
X136328092Y-97488100D01*
X133214908Y-97488100D01*
X133209000Y-97488100D01*
X133209000Y-95755100D01*
X136334000Y-95755100D01*
X136334000Y-95761008D01*
G37*
G36*
X137809000Y-95571600D02*
G01*
X136509000Y-95571600D01*
X136509000Y-94671600D01*
X137809000Y-94671600D01*
X137809000Y-95571600D01*
G37*
G36*
X127122301Y-93676909D02*
G01*
X127146633Y-93693167D01*
X127162891Y-93717499D01*
X127168600Y-93746200D01*
X127168600Y-95071200D01*
X127162891Y-95099901D01*
X127146633Y-95124233D01*
X127122301Y-95140491D01*
X127093600Y-95146200D01*
X126943600Y-95146200D01*
X126914899Y-95140491D01*
X126890567Y-95124233D01*
X126874309Y-95099901D01*
X126868600Y-95071200D01*
X126868600Y-93746200D01*
X126874309Y-93717499D01*
X126890567Y-93693167D01*
X126914899Y-93676909D01*
X126943600Y-93671200D01*
X127093600Y-93671200D01*
X127122301Y-93676909D01*
G37*
G36*
X127622301Y-93676909D02*
G01*
X127646633Y-93693167D01*
X127662891Y-93717499D01*
X127668600Y-93746200D01*
X127668600Y-95071200D01*
X127662891Y-95099901D01*
X127646633Y-95124233D01*
X127622301Y-95140491D01*
X127593600Y-95146200D01*
X127443600Y-95146200D01*
X127414899Y-95140491D01*
X127390567Y-95124233D01*
X127374309Y-95099901D01*
X127368600Y-95071200D01*
X127368600Y-93746200D01*
X127374309Y-93717499D01*
X127390567Y-93693167D01*
X127414899Y-93676909D01*
X127443600Y-93671200D01*
X127593600Y-93671200D01*
X127622301Y-93676909D01*
G37*
G36*
X128122301Y-93676909D02*
G01*
X128146633Y-93693167D01*
X128162891Y-93717499D01*
X128168600Y-93746200D01*
X128168600Y-95071200D01*
X128162891Y-95099901D01*
X128146633Y-95124233D01*
X128122301Y-95140491D01*
X128093600Y-95146200D01*
X127943600Y-95146200D01*
X127914899Y-95140491D01*
X127890567Y-95124233D01*
X127874309Y-95099901D01*
X127868600Y-95071200D01*
X127868600Y-93746200D01*
X127874309Y-93717499D01*
X127890567Y-93693167D01*
X127914899Y-93676909D01*
X127943600Y-93671200D01*
X128093600Y-93671200D01*
X128122301Y-93676909D01*
G37*
G36*
X128622301Y-93676909D02*
G01*
X128646633Y-93693167D01*
X128662891Y-93717499D01*
X128668600Y-93746200D01*
X128668600Y-95071200D01*
X128662891Y-95099901D01*
X128646633Y-95124233D01*
X128622301Y-95140491D01*
X128593600Y-95146200D01*
X128443600Y-95146200D01*
X128414899Y-95140491D01*
X128390567Y-95124233D01*
X128374309Y-95099901D01*
X128368600Y-95071200D01*
X128368600Y-93746200D01*
X128374309Y-93717499D01*
X128390567Y-93693167D01*
X128414899Y-93676909D01*
X128443600Y-93671200D01*
X128593600Y-93671200D01*
X128622301Y-93676909D01*
G37*
G36*
X129122301Y-93676909D02*
G01*
X129146633Y-93693167D01*
X129162891Y-93717499D01*
X129168600Y-93746200D01*
X129168600Y-95071200D01*
X129162891Y-95099901D01*
X129146633Y-95124233D01*
X129122301Y-95140491D01*
X129093600Y-95146200D01*
X128943600Y-95146200D01*
X128914899Y-95140491D01*
X128890567Y-95124233D01*
X128874309Y-95099901D01*
X128868600Y-95071200D01*
X128868600Y-93746200D01*
X128874309Y-93717499D01*
X128890567Y-93693167D01*
X128914899Y-93676909D01*
X128943600Y-93671200D01*
X129093600Y-93671200D01*
X129122301Y-93676909D01*
G37*
G36*
X129622301Y-93676909D02*
G01*
X129646633Y-93693167D01*
X129662891Y-93717499D01*
X129668600Y-93746200D01*
X129668600Y-95071200D01*
X129662891Y-95099901D01*
X129646633Y-95124233D01*
X129622301Y-95140491D01*
X129593600Y-95146200D01*
X129443600Y-95146200D01*
X129414899Y-95140491D01*
X129390567Y-95124233D01*
X129374309Y-95099901D01*
X129368600Y-95071200D01*
X129368600Y-93746200D01*
X129374309Y-93717499D01*
X129390567Y-93693167D01*
X129414899Y-93676909D01*
X129443600Y-93671200D01*
X129593600Y-93671200D01*
X129622301Y-93676909D01*
G37*
G36*
X130122301Y-93676909D02*
G01*
X130146633Y-93693167D01*
X130162891Y-93717499D01*
X130168600Y-93746200D01*
X130168600Y-95071200D01*
X130162891Y-95099901D01*
X130146633Y-95124233D01*
X130122301Y-95140491D01*
X130093600Y-95146200D01*
X129943600Y-95146200D01*
X129914899Y-95140491D01*
X129890567Y-95124233D01*
X129874309Y-95099901D01*
X129868600Y-95071200D01*
X129868600Y-93746200D01*
X129874309Y-93717499D01*
X129890567Y-93693167D01*
X129914899Y-93676909D01*
X129943600Y-93671200D01*
X130093600Y-93671200D01*
X130122301Y-93676909D01*
G37*
G36*
X130622301Y-93676909D02*
G01*
X130646633Y-93693167D01*
X130662891Y-93717499D01*
X130668600Y-93746200D01*
X130668600Y-95071200D01*
X130662891Y-95099901D01*
X130646633Y-95124233D01*
X130622301Y-95140491D01*
X130593600Y-95146200D01*
X130443600Y-95146200D01*
X130414899Y-95140491D01*
X130390567Y-95124233D01*
X130374309Y-95099901D01*
X130368600Y-95071200D01*
X130368600Y-93746200D01*
X130374309Y-93717499D01*
X130390567Y-93693167D01*
X130414899Y-93676909D01*
X130443600Y-93671200D01*
X130593600Y-93671200D01*
X130622301Y-93676909D01*
G37*
G36*
X131122301Y-93676909D02*
G01*
X131146633Y-93693167D01*
X131162891Y-93717499D01*
X131168600Y-93746200D01*
X131168600Y-95071200D01*
X131162891Y-95099901D01*
X131146633Y-95124233D01*
X131122301Y-95140491D01*
X131093600Y-95146200D01*
X130943600Y-95146200D01*
X130914899Y-95140491D01*
X130890567Y-95124233D01*
X130874309Y-95099901D01*
X130868600Y-95071200D01*
X130868600Y-93746200D01*
X130874309Y-93717499D01*
X130890567Y-93693167D01*
X130914899Y-93676909D01*
X130943600Y-93671200D01*
X131093600Y-93671200D01*
X131122301Y-93676909D01*
G37*
G36*
X131622301Y-93676909D02*
G01*
X131646633Y-93693167D01*
X131662891Y-93717499D01*
X131668600Y-93746200D01*
X131668600Y-95071200D01*
X131662891Y-95099901D01*
X131646633Y-95124233D01*
X131622301Y-95140491D01*
X131593600Y-95146200D01*
X131443600Y-95146200D01*
X131414899Y-95140491D01*
X131390567Y-95124233D01*
X131374309Y-95099901D01*
X131368600Y-95071200D01*
X131368600Y-93746200D01*
X131374309Y-93717499D01*
X131390567Y-93693167D01*
X131414899Y-93676909D01*
X131443600Y-93671200D01*
X131593600Y-93671200D01*
X131622301Y-93676909D01*
G37*
G36*
X132122301Y-93676909D02*
G01*
X132146633Y-93693167D01*
X132162891Y-93717499D01*
X132168600Y-93746200D01*
X132168600Y-95071200D01*
X132162891Y-95099901D01*
X132146633Y-95124233D01*
X132122301Y-95140491D01*
X132093600Y-95146200D01*
X131943600Y-95146200D01*
X131914899Y-95140491D01*
X131890567Y-95124233D01*
X131874309Y-95099901D01*
X131868600Y-95071200D01*
X131868600Y-93746200D01*
X131874309Y-93717499D01*
X131890567Y-93693167D01*
X131914899Y-93676909D01*
X131943600Y-93671200D01*
X132093600Y-93671200D01*
X132122301Y-93676909D01*
G37*
G36*
X132622301Y-93676909D02*
G01*
X132646633Y-93693167D01*
X132662891Y-93717499D01*
X132668600Y-93746200D01*
X132668600Y-95071200D01*
X132662891Y-95099901D01*
X132646633Y-95124233D01*
X132622301Y-95140491D01*
X132593600Y-95146200D01*
X132443600Y-95146200D01*
X132414899Y-95140491D01*
X132390567Y-95124233D01*
X132374309Y-95099901D01*
X132368600Y-95071200D01*
X132368600Y-93746200D01*
X132374309Y-93717499D01*
X132390567Y-93693167D01*
X132414899Y-93676909D01*
X132443600Y-93671200D01*
X132593600Y-93671200D01*
X132622301Y-93676909D01*
G37*
G36*
X126297301Y-92851909D02*
G01*
X126321633Y-92868167D01*
X126337891Y-92892499D01*
X126343600Y-92921200D01*
X126343600Y-93071200D01*
X126337891Y-93099901D01*
X126321633Y-93124233D01*
X126297301Y-93140491D01*
X126268600Y-93146200D01*
X124943600Y-93146200D01*
X124914899Y-93140491D01*
X124890567Y-93124233D01*
X124874309Y-93099901D01*
X124868600Y-93071200D01*
X124868600Y-92921200D01*
X124874309Y-92892499D01*
X124890567Y-92868167D01*
X124914899Y-92851909D01*
X124943600Y-92846200D01*
X126268600Y-92846200D01*
X126297301Y-92851909D01*
G37*
G36*
X134622301Y-92851909D02*
G01*
X134646633Y-92868167D01*
X134662891Y-92892499D01*
X134668600Y-92921200D01*
X134668600Y-93071200D01*
X134662891Y-93099901D01*
X134646633Y-93124233D01*
X134622301Y-93140491D01*
X134593600Y-93146200D01*
X133268600Y-93146200D01*
X133239899Y-93140491D01*
X133215567Y-93124233D01*
X133199309Y-93099901D01*
X133193600Y-93071200D01*
X133193600Y-92921200D01*
X133199309Y-92892499D01*
X133215567Y-92868167D01*
X133239899Y-92851909D01*
X133268600Y-92846200D01*
X134593600Y-92846200D01*
X134622301Y-92851909D01*
G37*
G36*
X138946664Y-91479802D02*
G01*
X139109000Y-91552078D01*
X139252761Y-91656527D01*
X139371664Y-91788583D01*
X139460514Y-91942474D01*
X139515425Y-92111475D01*
X139534000Y-92288200D01*
X139515425Y-92464925D01*
X139460514Y-92633926D01*
X139371664Y-92787817D01*
X139252761Y-92919873D01*
X139109000Y-93024322D01*
X138946664Y-93096598D01*
X138772849Y-93133544D01*
X138595151Y-93133544D01*
X138421336Y-93096598D01*
X138259000Y-93024322D01*
X138115239Y-92919873D01*
X137996336Y-92787817D01*
X137907486Y-92633926D01*
X137852575Y-92464925D01*
X137834000Y-92288200D01*
X137852575Y-92111475D01*
X137907486Y-91942474D01*
X137996336Y-91788583D01*
X138115239Y-91656527D01*
X138259000Y-91552078D01*
X138421336Y-91479802D01*
X138595151Y-91442856D01*
X138772849Y-91442856D01*
X138946664Y-91479802D01*
G37*
G36*
X126297301Y-92351909D02*
G01*
X126321633Y-92368167D01*
X126337891Y-92392499D01*
X126343600Y-92421200D01*
X126343600Y-92571200D01*
X126337891Y-92599901D01*
X126321633Y-92624233D01*
X126297301Y-92640491D01*
X126268600Y-92646200D01*
X124943600Y-92646200D01*
X124914899Y-92640491D01*
X124890567Y-92624233D01*
X124874309Y-92599901D01*
X124868600Y-92571200D01*
X124868600Y-92421200D01*
X124874309Y-92392499D01*
X124890567Y-92368167D01*
X124914899Y-92351909D01*
X124943600Y-92346200D01*
X126268600Y-92346200D01*
X126297301Y-92351909D01*
G37*
G36*
X134622301Y-92351909D02*
G01*
X134646633Y-92368167D01*
X134662891Y-92392499D01*
X134668600Y-92421200D01*
X134668600Y-92571200D01*
X134662891Y-92599901D01*
X134646633Y-92624233D01*
X134622301Y-92640491D01*
X134593600Y-92646200D01*
X133268600Y-92646200D01*
X133239899Y-92640491D01*
X133215567Y-92624233D01*
X133199309Y-92599901D01*
X133193600Y-92571200D01*
X133193600Y-92421200D01*
X133199309Y-92392499D01*
X133215567Y-92368167D01*
X133239899Y-92351909D01*
X133268600Y-92346200D01*
X134593600Y-92346200D01*
X134622301Y-92351909D01*
G37*
G36*
X126297301Y-91851909D02*
G01*
X126321633Y-91868167D01*
X126337891Y-91892499D01*
X126343600Y-91921200D01*
X126343600Y-92071200D01*
X126337891Y-92099901D01*
X126321633Y-92124233D01*
X126297301Y-92140491D01*
X126268600Y-92146200D01*
X124943600Y-92146200D01*
X124914899Y-92140491D01*
X124890567Y-92124233D01*
X124874309Y-92099901D01*
X124868600Y-92071200D01*
X124868600Y-91921200D01*
X124874309Y-91892499D01*
X124890567Y-91868167D01*
X124914899Y-91851909D01*
X124943600Y-91846200D01*
X126268600Y-91846200D01*
X126297301Y-91851909D01*
G37*
G36*
X134622301Y-91851909D02*
G01*
X134646633Y-91868167D01*
X134662891Y-91892499D01*
X134668600Y-91921200D01*
X134668600Y-92071200D01*
X134662891Y-92099901D01*
X134646633Y-92124233D01*
X134622301Y-92140491D01*
X134593600Y-92146200D01*
X133268600Y-92146200D01*
X133239899Y-92140491D01*
X133215567Y-92124233D01*
X133199309Y-92099901D01*
X133193600Y-92071200D01*
X133193600Y-91921200D01*
X133199309Y-91892499D01*
X133215567Y-91868167D01*
X133239899Y-91851909D01*
X133268600Y-91846200D01*
X134593600Y-91846200D01*
X134622301Y-91851909D01*
G37*
G36*
X126297301Y-91351909D02*
G01*
X126321633Y-91368167D01*
X126337891Y-91392499D01*
X126343600Y-91421200D01*
X126343600Y-91571200D01*
X126337891Y-91599901D01*
X126321633Y-91624233D01*
X126297301Y-91640491D01*
X126268600Y-91646200D01*
X124943600Y-91646200D01*
X124914899Y-91640491D01*
X124890567Y-91624233D01*
X124874309Y-91599901D01*
X124868600Y-91571200D01*
X124868600Y-91421200D01*
X124874309Y-91392499D01*
X124890567Y-91368167D01*
X124914899Y-91351909D01*
X124943600Y-91346200D01*
X126268600Y-91346200D01*
X126297301Y-91351909D01*
G37*
G36*
X134622301Y-91351909D02*
G01*
X134646633Y-91368167D01*
X134662891Y-91392499D01*
X134668600Y-91421200D01*
X134668600Y-91571200D01*
X134662891Y-91599901D01*
X134646633Y-91624233D01*
X134622301Y-91640491D01*
X134593600Y-91646200D01*
X133268600Y-91646200D01*
X133239899Y-91640491D01*
X133215567Y-91624233D01*
X133199309Y-91599901D01*
X133193600Y-91571200D01*
X133193600Y-91421200D01*
X133199309Y-91392499D01*
X133215567Y-91368167D01*
X133239899Y-91351909D01*
X133268600Y-91346200D01*
X134593600Y-91346200D01*
X134622301Y-91351909D01*
G37*
G36*
X124114600Y-91290600D02*
G01*
X122214600Y-91290600D01*
X122214600Y-90890600D01*
X124114600Y-90890600D01*
X124114600Y-91290600D01*
G37*
G36*
X126297301Y-90851909D02*
G01*
X126321633Y-90868167D01*
X126337891Y-90892499D01*
X126343600Y-90921200D01*
X126343600Y-91071200D01*
X126337891Y-91099901D01*
X126321633Y-91124233D01*
X126297301Y-91140491D01*
X126268600Y-91146200D01*
X124943600Y-91146200D01*
X124914899Y-91140491D01*
X124890567Y-91124233D01*
X124874309Y-91099901D01*
X124868600Y-91071200D01*
X124868600Y-90921200D01*
X124874309Y-90892499D01*
X124890567Y-90868167D01*
X124914899Y-90851909D01*
X124943600Y-90846200D01*
X126268600Y-90846200D01*
X126297301Y-90851909D01*
G37*
G36*
X134622301Y-90851909D02*
G01*
X134646633Y-90868167D01*
X134662891Y-90892499D01*
X134668600Y-90921200D01*
X134668600Y-91071200D01*
X134662891Y-91099901D01*
X134646633Y-91124233D01*
X134622301Y-91140491D01*
X134593600Y-91146200D01*
X133268600Y-91146200D01*
X133239899Y-91140491D01*
X133215567Y-91124233D01*
X133199309Y-91099901D01*
X133193600Y-91071200D01*
X133193600Y-90921200D01*
X133199309Y-90892499D01*
X133215567Y-90868167D01*
X133239899Y-90851909D01*
X133268600Y-90846200D01*
X134593600Y-90846200D01*
X134622301Y-90851909D01*
G37*
G36*
X126297301Y-90351909D02*
G01*
X126321633Y-90368167D01*
X126337891Y-90392499D01*
X126343600Y-90421200D01*
X126343600Y-90571200D01*
X126337891Y-90599901D01*
X126321633Y-90624233D01*
X126297301Y-90640491D01*
X126268600Y-90646200D01*
X124943600Y-90646200D01*
X124914899Y-90640491D01*
X124890567Y-90624233D01*
X124874309Y-90599901D01*
X124868600Y-90571200D01*
X124868600Y-90421200D01*
X124874309Y-90392499D01*
X124890567Y-90368167D01*
X124914899Y-90351909D01*
X124943600Y-90346200D01*
X126268600Y-90346200D01*
X126297301Y-90351909D01*
G37*
G36*
X134622301Y-90351909D02*
G01*
X134646633Y-90368167D01*
X134662891Y-90392499D01*
X134668600Y-90421200D01*
X134668600Y-90571200D01*
X134662891Y-90599901D01*
X134646633Y-90624233D01*
X134622301Y-90640491D01*
X134593600Y-90646200D01*
X133268600Y-90646200D01*
X133239899Y-90640491D01*
X133215567Y-90624233D01*
X133199309Y-90599901D01*
X133193600Y-90571200D01*
X133193600Y-90421200D01*
X133199309Y-90392499D01*
X133215567Y-90368167D01*
X133239899Y-90351909D01*
X133268600Y-90346200D01*
X134593600Y-90346200D01*
X134622301Y-90351909D01*
G37*
G36*
X138946664Y-88939802D02*
G01*
X139109000Y-89012078D01*
X139252761Y-89116527D01*
X139371664Y-89248583D01*
X139460514Y-89402474D01*
X139515425Y-89571475D01*
X139534000Y-89748200D01*
X139515425Y-89924925D01*
X139460514Y-90093926D01*
X139371664Y-90247817D01*
X139252761Y-90379873D01*
X139109000Y-90484322D01*
X138946664Y-90556598D01*
X138772849Y-90593544D01*
X138595151Y-90593544D01*
X138421336Y-90556598D01*
X138259000Y-90484322D01*
X138115239Y-90379873D01*
X137996336Y-90247817D01*
X137907486Y-90093926D01*
X137852575Y-89924925D01*
X137834000Y-89748200D01*
X137852575Y-89571475D01*
X137907486Y-89402474D01*
X137996336Y-89248583D01*
X138115239Y-89116527D01*
X138259000Y-89012078D01*
X138421336Y-88939802D01*
X138595151Y-88902856D01*
X138772849Y-88902856D01*
X138946664Y-88939802D01*
G37*
G36*
X126297301Y-89851909D02*
G01*
X126321633Y-89868167D01*
X126337891Y-89892499D01*
X126343600Y-89921200D01*
X126343600Y-90071200D01*
X126337891Y-90099901D01*
X126321633Y-90124233D01*
X126297301Y-90140491D01*
X126268600Y-90146200D01*
X124943600Y-90146200D01*
X124914899Y-90140491D01*
X124890567Y-90124233D01*
X124874309Y-90099901D01*
X124868600Y-90071200D01*
X124868600Y-89921200D01*
X124874309Y-89892499D01*
X124890567Y-89868167D01*
X124914899Y-89851909D01*
X124943600Y-89846200D01*
X126268600Y-89846200D01*
X126297301Y-89851909D01*
G37*
G36*
X134622301Y-89851909D02*
G01*
X134646633Y-89868167D01*
X134662891Y-89892499D01*
X134668600Y-89921200D01*
X134668600Y-90071200D01*
X134662891Y-90099901D01*
X134646633Y-90124233D01*
X134622301Y-90140491D01*
X134593600Y-90146200D01*
X133268600Y-90146200D01*
X133239899Y-90140491D01*
X133215567Y-90124233D01*
X133199309Y-90099901D01*
X133193600Y-90071200D01*
X133193600Y-89921200D01*
X133199309Y-89892499D01*
X133215567Y-89868167D01*
X133239899Y-89851909D01*
X133268600Y-89846200D01*
X134593600Y-89846200D01*
X134622301Y-89851909D01*
G37*
G36*
X124114600Y-90090600D02*
G01*
X122214600Y-90090600D01*
X122214600Y-89690600D01*
X124114600Y-89690600D01*
X124114600Y-90090600D01*
G37*
G36*
X126297301Y-89351909D02*
G01*
X126321633Y-89368167D01*
X126337891Y-89392499D01*
X126343600Y-89421200D01*
X126343600Y-89571200D01*
X126337891Y-89599901D01*
X126321633Y-89624233D01*
X126297301Y-89640491D01*
X126268600Y-89646200D01*
X124943600Y-89646200D01*
X124914899Y-89640491D01*
X124890567Y-89624233D01*
X124874309Y-89599901D01*
X124868600Y-89571200D01*
X124868600Y-89421200D01*
X124874309Y-89392499D01*
X124890567Y-89368167D01*
X124914899Y-89351909D01*
X124943600Y-89346200D01*
X126268600Y-89346200D01*
X126297301Y-89351909D01*
G37*
G36*
X134622301Y-89351909D02*
G01*
X134646633Y-89368167D01*
X134662891Y-89392499D01*
X134668600Y-89421200D01*
X134668600Y-89571200D01*
X134662891Y-89599901D01*
X134646633Y-89624233D01*
X134622301Y-89640491D01*
X134593600Y-89646200D01*
X133268600Y-89646200D01*
X133239899Y-89640491D01*
X133215567Y-89624233D01*
X133199309Y-89599901D01*
X133193600Y-89571200D01*
X133193600Y-89421200D01*
X133199309Y-89392499D01*
X133215567Y-89368167D01*
X133239899Y-89351909D01*
X133268600Y-89346200D01*
X134593600Y-89346200D01*
X134622301Y-89351909D01*
G37*
G36*
X126297301Y-88851909D02*
G01*
X126321633Y-88868167D01*
X126337891Y-88892499D01*
X126343600Y-88921200D01*
X126343600Y-89071200D01*
X126337891Y-89099901D01*
X126321633Y-89124233D01*
X126297301Y-89140491D01*
X126268600Y-89146200D01*
X124943600Y-89146200D01*
X124914899Y-89140491D01*
X124890567Y-89124233D01*
X124874309Y-89099901D01*
X124868600Y-89071200D01*
X124868600Y-88921200D01*
X124874309Y-88892499D01*
X124890567Y-88868167D01*
X124914899Y-88851909D01*
X124943600Y-88846200D01*
X126268600Y-88846200D01*
X126297301Y-88851909D01*
G37*
G36*
X134622301Y-88851909D02*
G01*
X134646633Y-88868167D01*
X134662891Y-88892499D01*
X134668600Y-88921200D01*
X134668600Y-89071200D01*
X134662891Y-89099901D01*
X134646633Y-89124233D01*
X134622301Y-89140491D01*
X134593600Y-89146200D01*
X133268600Y-89146200D01*
X133239899Y-89140491D01*
X133215567Y-89124233D01*
X133199309Y-89099901D01*
X133193600Y-89071200D01*
X133193600Y-88921200D01*
X133199309Y-88892499D01*
X133215567Y-88868167D01*
X133239899Y-88851909D01*
X133268600Y-88846200D01*
X134593600Y-88846200D01*
X134622301Y-88851909D01*
G37*
G36*
X124114600Y-88890600D02*
G01*
X122214600Y-88890600D01*
X122214600Y-88490600D01*
X124114600Y-88490600D01*
X124114600Y-88890600D01*
G37*
G36*
X126297301Y-88351909D02*
G01*
X126321633Y-88368167D01*
X126337891Y-88392499D01*
X126343600Y-88421200D01*
X126343600Y-88571200D01*
X126337891Y-88599901D01*
X126321633Y-88624233D01*
X126297301Y-88640491D01*
X126268600Y-88646200D01*
X124943600Y-88646200D01*
X124914899Y-88640491D01*
X124890567Y-88624233D01*
X124874309Y-88599901D01*
X124868600Y-88571200D01*
X124868600Y-88421200D01*
X124874309Y-88392499D01*
X124890567Y-88368167D01*
X124914899Y-88351909D01*
X124943600Y-88346200D01*
X126268600Y-88346200D01*
X126297301Y-88351909D01*
G37*
G36*
X134622301Y-88351909D02*
G01*
X134646633Y-88368167D01*
X134662891Y-88392499D01*
X134668600Y-88421200D01*
X134668600Y-88571200D01*
X134662891Y-88599901D01*
X134646633Y-88624233D01*
X134622301Y-88640491D01*
X134593600Y-88646200D01*
X133268600Y-88646200D01*
X133239899Y-88640491D01*
X133215567Y-88624233D01*
X133199309Y-88599901D01*
X133193600Y-88571200D01*
X133193600Y-88421200D01*
X133199309Y-88392499D01*
X133215567Y-88368167D01*
X133239899Y-88351909D01*
X133268600Y-88346200D01*
X134593600Y-88346200D01*
X134622301Y-88351909D01*
G37*
G36*
X126297301Y-87851909D02*
G01*
X126321633Y-87868167D01*
X126337891Y-87892499D01*
X126343600Y-87921200D01*
X126343600Y-88071200D01*
X126337891Y-88099901D01*
X126321633Y-88124233D01*
X126297301Y-88140491D01*
X126268600Y-88146200D01*
X124943600Y-88146200D01*
X124914899Y-88140491D01*
X124890567Y-88124233D01*
X124874309Y-88099901D01*
X124868600Y-88071200D01*
X124868600Y-87921200D01*
X124874309Y-87892499D01*
X124890567Y-87868167D01*
X124914899Y-87851909D01*
X124943600Y-87846200D01*
X126268600Y-87846200D01*
X126297301Y-87851909D01*
G37*
G36*
X134622301Y-87851909D02*
G01*
X134646633Y-87868167D01*
X134662891Y-87892499D01*
X134668600Y-87921200D01*
X134668600Y-88071200D01*
X134662891Y-88099901D01*
X134646633Y-88124233D01*
X134622301Y-88140491D01*
X134593600Y-88146200D01*
X133268600Y-88146200D01*
X133239899Y-88140491D01*
X133215567Y-88124233D01*
X133199309Y-88099901D01*
X133193600Y-88071200D01*
X133193600Y-87921200D01*
X133199309Y-87892499D01*
X133215567Y-87868167D01*
X133239899Y-87851909D01*
X133268600Y-87846200D01*
X134593600Y-87846200D01*
X134622301Y-87851909D01*
G37*
G36*
X138946664Y-86399802D02*
G01*
X139109000Y-86472078D01*
X139252761Y-86576527D01*
X139371664Y-86708583D01*
X139460514Y-86862474D01*
X139515425Y-87031475D01*
X139534000Y-87208200D01*
X139515425Y-87384925D01*
X139460514Y-87553926D01*
X139371664Y-87707817D01*
X139252761Y-87839873D01*
X139109000Y-87944322D01*
X138946664Y-88016598D01*
X138772849Y-88053544D01*
X138595151Y-88053544D01*
X138421336Y-88016598D01*
X138259000Y-87944322D01*
X138115239Y-87839873D01*
X137996336Y-87707817D01*
X137907486Y-87553926D01*
X137852575Y-87384925D01*
X137834000Y-87208200D01*
X137852575Y-87031475D01*
X137907486Y-86862474D01*
X137996336Y-86708583D01*
X138115239Y-86576527D01*
X138259000Y-86472078D01*
X138421336Y-86399802D01*
X138595151Y-86362856D01*
X138772849Y-86362856D01*
X138946664Y-86399802D01*
G37*
G36*
X126297301Y-87351909D02*
G01*
X126321633Y-87368167D01*
X126337891Y-87392499D01*
X126343600Y-87421200D01*
X126343600Y-87571200D01*
X126337891Y-87599901D01*
X126321633Y-87624233D01*
X126297301Y-87640491D01*
X126268600Y-87646200D01*
X124943600Y-87646200D01*
X124914899Y-87640491D01*
X124890567Y-87624233D01*
X124874309Y-87599901D01*
X124868600Y-87571200D01*
X124868600Y-87421200D01*
X124874309Y-87392499D01*
X124890567Y-87368167D01*
X124914899Y-87351909D01*
X124943600Y-87346200D01*
X126268600Y-87346200D01*
X126297301Y-87351909D01*
G37*
G36*
X134622301Y-87351909D02*
G01*
X134646633Y-87368167D01*
X134662891Y-87392499D01*
X134668600Y-87421200D01*
X134668600Y-87571200D01*
X134662891Y-87599901D01*
X134646633Y-87624233D01*
X134622301Y-87640491D01*
X134593600Y-87646200D01*
X133268600Y-87646200D01*
X133239899Y-87640491D01*
X133215567Y-87624233D01*
X133199309Y-87599901D01*
X133193600Y-87571200D01*
X133193600Y-87421200D01*
X133199309Y-87392499D01*
X133215567Y-87368167D01*
X133239899Y-87351909D01*
X133268600Y-87346200D01*
X134593600Y-87346200D01*
X134622301Y-87351909D01*
G37*
G36*
X127122301Y-85351909D02*
G01*
X127146633Y-85368167D01*
X127162891Y-85392499D01*
X127168600Y-85421200D01*
X127168600Y-86746200D01*
X127162891Y-86774901D01*
X127146633Y-86799233D01*
X127122301Y-86815491D01*
X127093600Y-86821200D01*
X126943600Y-86821200D01*
X126914899Y-86815491D01*
X126890567Y-86799233D01*
X126874309Y-86774901D01*
X126868600Y-86746200D01*
X126868600Y-85421200D01*
X126874309Y-85392499D01*
X126890567Y-85368167D01*
X126914899Y-85351909D01*
X126943600Y-85346200D01*
X127093600Y-85346200D01*
X127122301Y-85351909D01*
G37*
G36*
X127622301Y-85351909D02*
G01*
X127646633Y-85368167D01*
X127662891Y-85392499D01*
X127668600Y-85421200D01*
X127668600Y-86746200D01*
X127662891Y-86774901D01*
X127646633Y-86799233D01*
X127622301Y-86815491D01*
X127593600Y-86821200D01*
X127443600Y-86821200D01*
X127414899Y-86815491D01*
X127390567Y-86799233D01*
X127374309Y-86774901D01*
X127368600Y-86746200D01*
X127368600Y-85421200D01*
X127374309Y-85392499D01*
X127390567Y-85368167D01*
X127414899Y-85351909D01*
X127443600Y-85346200D01*
X127593600Y-85346200D01*
X127622301Y-85351909D01*
G37*
G36*
X128122301Y-85351909D02*
G01*
X128146633Y-85368167D01*
X128162891Y-85392499D01*
X128168600Y-85421200D01*
X128168600Y-86746200D01*
X128162891Y-86774901D01*
X128146633Y-86799233D01*
X128122301Y-86815491D01*
X128093600Y-86821200D01*
X127943600Y-86821200D01*
X127914899Y-86815491D01*
X127890567Y-86799233D01*
X127874309Y-86774901D01*
X127868600Y-86746200D01*
X127868600Y-85421200D01*
X127874309Y-85392499D01*
X127890567Y-85368167D01*
X127914899Y-85351909D01*
X127943600Y-85346200D01*
X128093600Y-85346200D01*
X128122301Y-85351909D01*
G37*
G36*
X128622301Y-85351909D02*
G01*
X128646633Y-85368167D01*
X128662891Y-85392499D01*
X128668600Y-85421200D01*
X128668600Y-86746200D01*
X128662891Y-86774901D01*
X128646633Y-86799233D01*
X128622301Y-86815491D01*
X128593600Y-86821200D01*
X128443600Y-86821200D01*
X128414899Y-86815491D01*
X128390567Y-86799233D01*
X128374309Y-86774901D01*
X128368600Y-86746200D01*
X128368600Y-85421200D01*
X128374309Y-85392499D01*
X128390567Y-85368167D01*
X128414899Y-85351909D01*
X128443600Y-85346200D01*
X128593600Y-85346200D01*
X128622301Y-85351909D01*
G37*
G36*
X129122301Y-85351909D02*
G01*
X129146633Y-85368167D01*
X129162891Y-85392499D01*
X129168600Y-85421200D01*
X129168600Y-86746200D01*
X129162891Y-86774901D01*
X129146633Y-86799233D01*
X129122301Y-86815491D01*
X129093600Y-86821200D01*
X128943600Y-86821200D01*
X128914899Y-86815491D01*
X128890567Y-86799233D01*
X128874309Y-86774901D01*
X128868600Y-86746200D01*
X128868600Y-85421200D01*
X128874309Y-85392499D01*
X128890567Y-85368167D01*
X128914899Y-85351909D01*
X128943600Y-85346200D01*
X129093600Y-85346200D01*
X129122301Y-85351909D01*
G37*
G36*
X129622301Y-85351909D02*
G01*
X129646633Y-85368167D01*
X129662891Y-85392499D01*
X129668600Y-85421200D01*
X129668600Y-86746200D01*
X129662891Y-86774901D01*
X129646633Y-86799233D01*
X129622301Y-86815491D01*
X129593600Y-86821200D01*
X129443600Y-86821200D01*
X129414899Y-86815491D01*
X129390567Y-86799233D01*
X129374309Y-86774901D01*
X129368600Y-86746200D01*
X129368600Y-85421200D01*
X129374309Y-85392499D01*
X129390567Y-85368167D01*
X129414899Y-85351909D01*
X129443600Y-85346200D01*
X129593600Y-85346200D01*
X129622301Y-85351909D01*
G37*
G36*
X130122301Y-85351909D02*
G01*
X130146633Y-85368167D01*
X130162891Y-85392499D01*
X130168600Y-85421200D01*
X130168600Y-86746200D01*
X130162891Y-86774901D01*
X130146633Y-86799233D01*
X130122301Y-86815491D01*
X130093600Y-86821200D01*
X129943600Y-86821200D01*
X129914899Y-86815491D01*
X129890567Y-86799233D01*
X129874309Y-86774901D01*
X129868600Y-86746200D01*
X129868600Y-85421200D01*
X129874309Y-85392499D01*
X129890567Y-85368167D01*
X129914899Y-85351909D01*
X129943600Y-85346200D01*
X130093600Y-85346200D01*
X130122301Y-85351909D01*
G37*
G36*
X130622301Y-85351909D02*
G01*
X130646633Y-85368167D01*
X130662891Y-85392499D01*
X130668600Y-85421200D01*
X130668600Y-86746200D01*
X130662891Y-86774901D01*
X130646633Y-86799233D01*
X130622301Y-86815491D01*
X130593600Y-86821200D01*
X130443600Y-86821200D01*
X130414899Y-86815491D01*
X130390567Y-86799233D01*
X130374309Y-86774901D01*
X130368600Y-86746200D01*
X130368600Y-85421200D01*
X130374309Y-85392499D01*
X130390567Y-85368167D01*
X130414899Y-85351909D01*
X130443600Y-85346200D01*
X130593600Y-85346200D01*
X130622301Y-85351909D01*
G37*
G36*
X131122301Y-85351909D02*
G01*
X131146633Y-85368167D01*
X131162891Y-85392499D01*
X131168600Y-85421200D01*
X131168600Y-86746200D01*
X131162891Y-86774901D01*
X131146633Y-86799233D01*
X131122301Y-86815491D01*
X131093600Y-86821200D01*
X130943600Y-86821200D01*
X130914899Y-86815491D01*
X130890567Y-86799233D01*
X130874309Y-86774901D01*
X130868600Y-86746200D01*
X130868600Y-85421200D01*
X130874309Y-85392499D01*
X130890567Y-85368167D01*
X130914899Y-85351909D01*
X130943600Y-85346200D01*
X131093600Y-85346200D01*
X131122301Y-85351909D01*
G37*
G36*
X131622301Y-85351909D02*
G01*
X131646633Y-85368167D01*
X131662891Y-85392499D01*
X131668600Y-85421200D01*
X131668600Y-86746200D01*
X131662891Y-86774901D01*
X131646633Y-86799233D01*
X131622301Y-86815491D01*
X131593600Y-86821200D01*
X131443600Y-86821200D01*
X131414899Y-86815491D01*
X131390567Y-86799233D01*
X131374309Y-86774901D01*
X131368600Y-86746200D01*
X131368600Y-85421200D01*
X131374309Y-85392499D01*
X131390567Y-85368167D01*
X131414899Y-85351909D01*
X131443600Y-85346200D01*
X131593600Y-85346200D01*
X131622301Y-85351909D01*
G37*
G36*
X132122301Y-85351909D02*
G01*
X132146633Y-85368167D01*
X132162891Y-85392499D01*
X132168600Y-85421200D01*
X132168600Y-86746200D01*
X132162891Y-86774901D01*
X132146633Y-86799233D01*
X132122301Y-86815491D01*
X132093600Y-86821200D01*
X131943600Y-86821200D01*
X131914899Y-86815491D01*
X131890567Y-86799233D01*
X131874309Y-86774901D01*
X131868600Y-86746200D01*
X131868600Y-85421200D01*
X131874309Y-85392499D01*
X131890567Y-85368167D01*
X131914899Y-85351909D01*
X131943600Y-85346200D01*
X132093600Y-85346200D01*
X132122301Y-85351909D01*
G37*
G36*
X132622301Y-85351909D02*
G01*
X132646633Y-85368167D01*
X132662891Y-85392499D01*
X132668600Y-85421200D01*
X132668600Y-86746200D01*
X132662891Y-86774901D01*
X132646633Y-86799233D01*
X132622301Y-86815491D01*
X132593600Y-86821200D01*
X132443600Y-86821200D01*
X132414899Y-86815491D01*
X132390567Y-86799233D01*
X132374309Y-86774901D01*
X132368600Y-86746200D01*
X132368600Y-85421200D01*
X132374309Y-85392499D01*
X132390567Y-85368167D01*
X132414899Y-85351909D01*
X132443600Y-85346200D01*
X132593600Y-85346200D01*
X132622301Y-85351909D01*
G37*
G36*
X139534000Y-85518200D02*
G01*
X137834000Y-85518200D01*
X137834000Y-83818200D01*
X139534000Y-83818200D01*
X139534000Y-85518200D01*
G37*
G36*
X133041048Y-83072964D02*
G01*
X133091240Y-83078787D01*
X133108389Y-83086359D01*
X133131870Y-83091030D01*
X133157007Y-83107826D01*
X133176895Y-83116608D01*
X133190478Y-83130191D01*
X133212976Y-83145224D01*
X133228008Y-83167721D01*
X133241591Y-83181304D01*
X133250371Y-83201189D01*
X133267170Y-83226330D01*
X133271840Y-83249811D01*
X133279412Y-83266959D01*
X133285236Y-83317163D01*
X133286199Y-83322002D01*
X133286199Y-83325458D01*
X133286200Y-83325467D01*
X133286200Y-84568532D01*
X133286200Y-84571999D01*
X133285234Y-84576851D01*
X133279412Y-84627040D01*
X133271841Y-84644185D01*
X133267170Y-84667670D01*
X133250370Y-84692812D01*
X133241591Y-84712695D01*
X133228010Y-84726275D01*
X133212976Y-84748776D01*
X133190475Y-84763810D01*
X133176895Y-84777391D01*
X133157012Y-84786170D01*
X133131870Y-84802970D01*
X133108387Y-84807640D01*
X133091240Y-84815212D01*
X133041036Y-84821036D01*
X133036198Y-84821999D01*
X133032741Y-84821999D01*
X133032733Y-84822000D01*
X132114667Y-84822000D01*
X132114666Y-84821999D01*
X132111201Y-84822000D01*
X132106349Y-84821035D01*
X132056159Y-84815212D01*
X132039012Y-84807640D01*
X132015530Y-84802970D01*
X131990389Y-84786171D01*
X131970504Y-84777391D01*
X131956921Y-84763808D01*
X131934424Y-84748776D01*
X131919391Y-84726278D01*
X131905808Y-84712695D01*
X131897026Y-84692807D01*
X131880230Y-84667670D01*
X131875560Y-84644191D01*
X131867987Y-84627040D01*
X131862163Y-84576836D01*
X131861201Y-84571998D01*
X131861200Y-84568540D01*
X131861200Y-84568532D01*
X131861200Y-83325467D01*
X131861200Y-83325466D01*
X131861200Y-83322001D01*
X131862164Y-83317151D01*
X131867987Y-83266959D01*
X131875559Y-83249808D01*
X131880230Y-83226330D01*
X131897025Y-83201193D01*
X131905808Y-83181304D01*
X131919393Y-83167718D01*
X131934424Y-83145224D01*
X131956918Y-83130193D01*
X131970504Y-83116608D01*
X131990393Y-83107825D01*
X132015530Y-83091030D01*
X132039007Y-83086360D01*
X132056159Y-83078787D01*
X132106365Y-83072963D01*
X132111202Y-83072001D01*
X132114658Y-83072000D01*
X132114667Y-83072000D01*
X133032733Y-83072000D01*
X133036199Y-83072000D01*
X133041048Y-83072964D01*
G37*
G36*
X136016048Y-83072964D02*
G01*
X136066240Y-83078787D01*
X136083389Y-83086359D01*
X136106870Y-83091030D01*
X136132007Y-83107826D01*
X136151895Y-83116608D01*
X136165478Y-83130191D01*
X136187976Y-83145224D01*
X136203008Y-83167721D01*
X136216591Y-83181304D01*
X136225371Y-83201189D01*
X136242170Y-83226330D01*
X136246840Y-83249811D01*
X136254412Y-83266959D01*
X136260236Y-83317163D01*
X136261199Y-83322002D01*
X136261199Y-83325458D01*
X136261200Y-83325467D01*
X136261200Y-84568532D01*
X136261200Y-84571999D01*
X136260234Y-84576851D01*
X136254412Y-84627040D01*
X136246841Y-84644185D01*
X136242170Y-84667670D01*
X136225370Y-84692812D01*
X136216591Y-84712695D01*
X136203010Y-84726275D01*
X136187976Y-84748776D01*
X136165475Y-84763810D01*
X136151895Y-84777391D01*
X136132012Y-84786170D01*
X136106870Y-84802970D01*
X136083387Y-84807640D01*
X136066240Y-84815212D01*
X136016036Y-84821036D01*
X136011198Y-84821999D01*
X136007741Y-84821999D01*
X136007733Y-84822000D01*
X135089667Y-84822000D01*
X135089666Y-84821999D01*
X135086201Y-84822000D01*
X135081349Y-84821035D01*
X135031159Y-84815212D01*
X135014012Y-84807640D01*
X134990530Y-84802970D01*
X134965389Y-84786171D01*
X134945504Y-84777391D01*
X134931921Y-84763808D01*
X134909424Y-84748776D01*
X134894391Y-84726278D01*
X134880808Y-84712695D01*
X134872026Y-84692807D01*
X134855230Y-84667670D01*
X134850560Y-84644191D01*
X134842987Y-84627040D01*
X134837163Y-84576836D01*
X134836201Y-84571998D01*
X134836200Y-84568540D01*
X134836200Y-84568532D01*
X134836200Y-83325467D01*
X134836200Y-83325466D01*
X134836200Y-83322001D01*
X134837164Y-83317151D01*
X134842987Y-83266959D01*
X134850559Y-83249808D01*
X134855230Y-83226330D01*
X134872025Y-83201193D01*
X134880808Y-83181304D01*
X134894393Y-83167718D01*
X134909424Y-83145224D01*
X134931918Y-83130193D01*
X134945504Y-83116608D01*
X134965393Y-83107825D01*
X134990530Y-83091030D01*
X135014007Y-83086360D01*
X135031159Y-83078787D01*
X135081365Y-83072963D01*
X135086202Y-83072001D01*
X135089658Y-83072000D01*
X135089667Y-83072000D01*
X136007733Y-83072000D01*
X136011199Y-83072000D01*
X136016048Y-83072964D01*
G37*
G36*
X126844561Y-80524205D02*
G01*
X127005619Y-80580562D01*
X127150099Y-80671344D01*
X127270756Y-80792001D01*
X127361538Y-80936481D01*
X127417895Y-81097539D01*
X127437000Y-81267100D01*
X127417895Y-81436661D01*
X127361538Y-81597719D01*
X127270756Y-81742199D01*
X127150099Y-81862856D01*
X127005619Y-81953638D01*
X126844561Y-82009995D01*
X126675000Y-82029100D01*
X126505439Y-82009995D01*
X126344381Y-81953638D01*
X126199901Y-81862856D01*
X126079244Y-81742199D01*
X125988462Y-81597719D01*
X125932105Y-81436661D01*
X125913000Y-81267100D01*
X125932105Y-81097539D01*
X125988462Y-80936481D01*
X126079244Y-80792001D01*
X126199901Y-80671344D01*
X126344381Y-80580562D01*
X126505439Y-80524205D01*
X126675000Y-80505100D01*
X126844561Y-80524205D01*
G37*
G36*
X129344561Y-80524205D02*
G01*
X129505619Y-80580562D01*
X129650099Y-80671344D01*
X129770756Y-80792001D01*
X129861538Y-80936481D01*
X129917895Y-81097539D01*
X129937000Y-81267100D01*
X129917895Y-81436661D01*
X129861538Y-81597719D01*
X129770756Y-81742199D01*
X129650099Y-81862856D01*
X129505619Y-81953638D01*
X129344561Y-82009995D01*
X129175000Y-82029100D01*
X129005439Y-82009995D01*
X128844381Y-81953638D01*
X128699901Y-81862856D01*
X128579244Y-81742199D01*
X128488462Y-81597719D01*
X128432105Y-81436661D01*
X128413000Y-81267100D01*
X128432105Y-81097539D01*
X128488462Y-80936481D01*
X128579244Y-80792001D01*
X128699901Y-80671344D01*
X128844381Y-80580562D01*
X129005439Y-80524205D01*
X129175000Y-80505100D01*
X129344561Y-80524205D01*
G37*
G36*
X131344561Y-80524205D02*
G01*
X131505619Y-80580562D01*
X131650099Y-80671344D01*
X131770756Y-80792001D01*
X131861538Y-80936481D01*
X131917895Y-81097539D01*
X131937000Y-81267100D01*
X131917895Y-81436661D01*
X131861538Y-81597719D01*
X131770756Y-81742199D01*
X131650099Y-81862856D01*
X131505619Y-81953638D01*
X131344561Y-82009995D01*
X131175000Y-82029100D01*
X131005439Y-82009995D01*
X130844381Y-81953638D01*
X130699901Y-81862856D01*
X130579244Y-81742199D01*
X130488462Y-81597719D01*
X130432105Y-81436661D01*
X130413000Y-81267100D01*
X130432105Y-81097539D01*
X130488462Y-80936481D01*
X130579244Y-80792001D01*
X130699901Y-80671344D01*
X130844381Y-80580562D01*
X131005439Y-80524205D01*
X131175000Y-80505100D01*
X131344561Y-80524205D01*
G37*
G36*
X134437000Y-82029100D02*
G01*
X132913000Y-82029100D01*
X132913000Y-80505100D01*
X134437000Y-80505100D01*
X134437000Y-82029100D01*
G37*
G36*
X123994412Y-76850976D02*
G01*
X124244347Y-76928071D01*
X124480000Y-77041556D01*
X124696107Y-77188895D01*
X124887841Y-77366798D01*
X125050918Y-77571290D01*
X125181696Y-77797803D01*
X125277252Y-78041278D01*
X125335454Y-78296276D01*
X125355000Y-78557100D01*
X125335454Y-78817924D01*
X125277252Y-79072922D01*
X125181696Y-79316397D01*
X125050918Y-79542910D01*
X124887841Y-79747402D01*
X124696107Y-79925305D01*
X124480000Y-80072644D01*
X124244347Y-80186129D01*
X123994412Y-80263224D01*
X123735778Y-80302207D01*
X123474222Y-80302207D01*
X123215588Y-80263224D01*
X122965653Y-80186129D01*
X122730000Y-80072644D01*
X122513893Y-79925305D01*
X122322159Y-79747402D01*
X122159082Y-79542910D01*
X122028304Y-79316397D01*
X121932748Y-79072922D01*
X121874546Y-78817924D01*
X121855000Y-78557100D01*
X121874546Y-78296276D01*
X121932748Y-78041278D01*
X122028304Y-77797803D01*
X122159082Y-77571290D01*
X122322159Y-77366798D01*
X122513893Y-77188895D01*
X122730000Y-77041556D01*
X122965653Y-76928071D01*
X123215588Y-76850976D01*
X123474222Y-76811993D01*
X123735778Y-76811993D01*
X123994412Y-76850976D01*
G37*
G36*
X137134412Y-76850976D02*
G01*
X137384347Y-76928071D01*
X137620000Y-77041556D01*
X137836107Y-77188895D01*
X138027841Y-77366798D01*
X138190918Y-77571290D01*
X138321696Y-77797803D01*
X138417252Y-78041278D01*
X138475454Y-78296276D01*
X138495000Y-78557100D01*
X138475454Y-78817924D01*
X138417252Y-79072922D01*
X138321696Y-79316397D01*
X138190918Y-79542910D01*
X138027841Y-79747402D01*
X137836107Y-79925305D01*
X137620000Y-80072644D01*
X137384347Y-80186129D01*
X137134412Y-80263224D01*
X136875778Y-80302207D01*
X136614222Y-80302207D01*
X136355588Y-80263224D01*
X136105653Y-80186129D01*
X135870000Y-80072644D01*
X135653893Y-79925305D01*
X135462159Y-79747402D01*
X135299082Y-79542910D01*
X135168304Y-79316397D01*
X135072748Y-79072922D01*
X135014546Y-78817924D01*
X134995000Y-78557100D01*
X135014546Y-78296276D01*
X135072748Y-78041278D01*
X135168304Y-77797803D01*
X135299082Y-77571290D01*
X135462159Y-77366798D01*
X135653893Y-77188895D01*
X135870000Y-77041556D01*
X136105653Y-76928071D01*
X136355588Y-76850976D01*
X136614222Y-76811993D01*
X136875778Y-76811993D01*
X137134412Y-76850976D01*
G37*
M02*
