%TF.GenerationSoftware,KiCad,Pcbnew,7.0.9*%
%TF.CreationDate,2024-03-27T20:05:08+00:00*%
%TF.ProjectId,USBHIDAdapter,55534248-4944-4416-9461-707465722e6b,rev?*%
%TF.SameCoordinates,Original*%
%TF.FileFunction,Paste,Top*%
%TF.FilePolarity,Positive*%
%FSLAX46Y46*%
G04 Gerber Fmt 4.6, Leading zero omitted, Abs format (unit mm)*
G04 Created by KiCad (PCBNEW 7.0.9) date 2024-03-27 20:05:08*
%MOMM*%
%LPD*%
G01*
G04 APERTURE LIST*
G04 Aperture macros list*
%AMRoundRect*
0 Rectangle with rounded corners*
0 $1 Rounding radius*
0 $2 $3 $4 $5 $6 $7 $8 $9 X,Y pos of 4 corners*
0 Add a 4 corners polygon primitive as box body*
4,1,4,$2,$3,$4,$5,$6,$7,$8,$9,$2,$3,0*
0 Add four circle primitives for the rounded corners*
1,1,$1+$1,$2,$3*
1,1,$1+$1,$4,$5*
1,1,$1+$1,$6,$7*
1,1,$1+$1,$8,$9*
0 Add four rect primitives between the rounded corners*
20,1,$1+$1,$2,$3,$4,$5,0*
20,1,$1+$1,$4,$5,$6,$7,0*
20,1,$1+$1,$6,$7,$8,$9,0*
20,1,$1+$1,$8,$9,$2,$3,0*%
%AMFreePoly0*
4,1,9,3.862500,-0.866500,0.737500,-0.866500,0.737500,-0.450000,-0.737500,-0.450000,-0.737500,0.450000,0.737500,0.450000,0.737500,0.866500,3.862500,0.866500,3.862500,-0.866500,3.862500,-0.866500,$1*%
G04 Aperture macros list end*
%ADD10R,1.900000X0.400000*%
%ADD11RoundRect,0.250001X-0.462499X-0.624999X0.462499X-0.624999X0.462499X0.624999X-0.462499X0.624999X0*%
%ADD12R,1.846667X3.480000*%
%ADD13RoundRect,0.075000X-0.662500X-0.075000X0.662500X-0.075000X0.662500X0.075000X-0.662500X0.075000X0*%
%ADD14RoundRect,0.075000X-0.075000X-0.662500X0.075000X-0.662500X0.075000X0.662500X-0.075000X0.662500X0*%
%ADD15R,1.300000X0.900000*%
%ADD16FreePoly0,180.000000*%
G04 APERTURE END LIST*
D10*
%TO.C,Y1*%
X123164600Y-91090600D03*
X123164600Y-89890600D03*
X123164600Y-88690600D03*
%TD*%
D11*
%TO.C,F1*%
X132573700Y-83947000D03*
X135548700Y-83947000D03*
%TD*%
D12*
%TO.C,J1*%
X124635000Y-101498400D03*
X127405000Y-101498400D03*
X130175000Y-101498400D03*
X132945000Y-101498400D03*
X135715000Y-101498400D03*
%TD*%
D13*
%TO.C,U1*%
X125606100Y-87496200D03*
X125606100Y-87996200D03*
X125606100Y-88496200D03*
X125606100Y-88996200D03*
X125606100Y-89496200D03*
X125606100Y-89996200D03*
X125606100Y-90496200D03*
X125606100Y-90996200D03*
X125606100Y-91496200D03*
X125606100Y-91996200D03*
X125606100Y-92496200D03*
X125606100Y-92996200D03*
D14*
X127018600Y-94408700D03*
X127518600Y-94408700D03*
X128018600Y-94408700D03*
X128518600Y-94408700D03*
X129018600Y-94408700D03*
X129518600Y-94408700D03*
X130018600Y-94408700D03*
X130518600Y-94408700D03*
X131018600Y-94408700D03*
X131518600Y-94408700D03*
X132018600Y-94408700D03*
X132518600Y-94408700D03*
D13*
X133931100Y-92996200D03*
X133931100Y-92496200D03*
X133931100Y-91996200D03*
X133931100Y-91496200D03*
X133931100Y-90996200D03*
X133931100Y-90496200D03*
X133931100Y-89996200D03*
X133931100Y-89496200D03*
X133931100Y-88996200D03*
X133931100Y-88496200D03*
X133931100Y-87996200D03*
X133931100Y-87496200D03*
D14*
X132518600Y-86083700D03*
X132018600Y-86083700D03*
X131518600Y-86083700D03*
X131018600Y-86083700D03*
X130518600Y-86083700D03*
X130018600Y-86083700D03*
X129518600Y-86083700D03*
X129018600Y-86083700D03*
X128518600Y-86083700D03*
X128018600Y-86083700D03*
X127518600Y-86083700D03*
X127018600Y-86083700D03*
%TD*%
D15*
%TO.C,U2*%
X137159000Y-98121600D03*
D16*
X137071500Y-96621600D03*
D15*
X137159000Y-95121600D03*
%TD*%
M02*
