%TF.GenerationSoftware,KiCad,Pcbnew,7.0.9*%
%TF.CreationDate,2024-03-27T20:05:08+00:00*%
%TF.ProjectId,USBHIDAdapter,55534248-4944-4416-9461-707465722e6b,rev?*%
%TF.SameCoordinates,Original*%
%TF.FileFunction,Copper,L2,Bot*%
%TF.FilePolarity,Positive*%
%FSLAX46Y46*%
G04 Gerber Fmt 4.6, Leading zero omitted, Abs format (unit mm)*
G04 Created by KiCad (PCBNEW 7.0.9) date 2024-03-27 20:05:08*
%MOMM*%
%LPD*%
G01*
G04 APERTURE LIST*
G04 Aperture macros list*
%AMRoundRect*
0 Rectangle with rounded corners*
0 $1 Rounding radius*
0 $2 $3 $4 $5 $6 $7 $8 $9 X,Y pos of 4 corners*
0 Add a 4 corners polygon primitive as box body*
4,1,4,$2,$3,$4,$5,$6,$7,$8,$9,$2,$3,0*
0 Add four circle primitives for the rounded corners*
1,1,$1+$1,$2,$3*
1,1,$1+$1,$4,$5*
1,1,$1+$1,$6,$7*
1,1,$1+$1,$8,$9*
0 Add four rect primitives between the rounded corners*
20,1,$1+$1,$2,$3,$4,$5,0*
20,1,$1+$1,$4,$5,$6,$7,0*
20,1,$1+$1,$6,$7,$8,$9,0*
20,1,$1+$1,$8,$9,$2,$3,0*%
G04 Aperture macros list end*
%TA.AperFunction,ComponentPad*%
%ADD10R,1.700000X1.700000*%
%TD*%
%TA.AperFunction,ComponentPad*%
%ADD11O,1.700000X1.700000*%
%TD*%
%TA.AperFunction,ComponentPad*%
%ADD12C,3.500000*%
%TD*%
%TA.AperFunction,ComponentPad*%
%ADD13C,1.524000*%
%TD*%
%TA.AperFunction,ComponentPad*%
%ADD14R,1.524000X1.524000*%
%TD*%
%TA.AperFunction,SMDPad,CuDef*%
%ADD15R,1.846667X3.480000*%
%TD*%
%TA.AperFunction,SMDPad,CuDef*%
%ADD16RoundRect,0.237500X-0.237500X0.300000X-0.237500X-0.300000X0.237500X-0.300000X0.237500X0.300000X0*%
%TD*%
%TA.AperFunction,SMDPad,CuDef*%
%ADD17RoundRect,0.237500X-0.300000X-0.237500X0.300000X-0.237500X0.300000X0.237500X-0.300000X0.237500X0*%
%TD*%
%TA.AperFunction,SMDPad,CuDef*%
%ADD18RoundRect,0.237500X0.237500X-0.300000X0.237500X0.300000X-0.237500X0.300000X-0.237500X-0.300000X0*%
%TD*%
%TA.AperFunction,SMDPad,CuDef*%
%ADD19RoundRect,0.237500X0.300000X0.237500X-0.300000X0.237500X-0.300000X-0.237500X0.300000X-0.237500X0*%
%TD*%
%TA.AperFunction,SMDPad,CuDef*%
%ADD20RoundRect,0.237500X0.237500X-0.250000X0.237500X0.250000X-0.237500X0.250000X-0.237500X-0.250000X0*%
%TD*%
%TA.AperFunction,ViaPad*%
%ADD21C,0.600000*%
%TD*%
%TA.AperFunction,Conductor*%
%ADD22C,0.200000*%
%TD*%
%TA.AperFunction,Conductor*%
%ADD23C,0.127000*%
%TD*%
%TA.AperFunction,Conductor*%
%ADD24C,0.400000*%
%TD*%
G04 APERTURE END LIST*
D10*
%TO.P,J2,1,Pin_1*%
%TO.N,/SWCLK*%
X138684000Y-84668200D03*
D11*
%TO.P,J2,2,Pin_2*%
%TO.N,/SWDIO*%
X138684000Y-87208200D03*
%TO.P,J2,3,Pin_3*%
%TO.N,GND*%
X138684000Y-89748200D03*
%TO.P,J2,4,Pin_4*%
%TO.N,+5V*%
X138684000Y-92288200D03*
%TD*%
D12*
%TO.P,J3,5,Shield*%
%TO.N,GND*%
X123605000Y-78557100D03*
X136745000Y-78557100D03*
D13*
%TO.P,J3,4,GND*%
X126675000Y-81267100D03*
%TO.P,J3,3,D+*%
%TO.N,/USB_DP*%
X129175000Y-81267100D03*
%TO.P,J3,2,D-*%
%TO.N,/USB_DM*%
X131175000Y-81267100D03*
D14*
%TO.P,J3,1,VBUS*%
%TO.N,Net-(J3-VBUS)*%
X133675000Y-81267100D03*
%TD*%
D15*
%TO.P,J1,9,9*%
%TO.N,/PIN9*%
X126020000Y-101498400D03*
%TO.P,J1,8,8*%
%TO.N,GND*%
X128790000Y-101498400D03*
%TO.P,J1,7,7*%
%TO.N,+5V*%
X131560000Y-101498400D03*
%TO.P,J1,6,6*%
%TO.N,/PIN6*%
X134330000Y-101498400D03*
%TD*%
D16*
%TO.P,C1,1*%
%TO.N,+3.3V*%
X138480800Y-96698900D03*
%TO.P,C1,2*%
%TO.N,GND*%
X138480800Y-98423900D03*
%TD*%
D17*
%TO.P,C2,1*%
%TO.N,+3.3V*%
X127229700Y-87884000D03*
%TO.P,C2,2*%
%TO.N,GND*%
X128954700Y-87884000D03*
%TD*%
D18*
%TO.P,C4,1*%
%TO.N,+5V*%
X136372600Y-95071100D03*
%TO.P,C4,2*%
%TO.N,GND*%
X136372600Y-93346100D03*
%TD*%
D19*
%TO.P,C6,1*%
%TO.N,+3.3V*%
X132459900Y-92481400D03*
%TO.P,C6,2*%
%TO.N,GND*%
X130734900Y-92481400D03*
%TD*%
D16*
%TO.P,C3,1*%
%TO.N,+3.3V*%
X132156200Y-87935900D03*
%TO.P,C3,2*%
%TO.N,GND*%
X132156200Y-89660900D03*
%TD*%
%TO.P,C5,1*%
%TO.N,+3.3V*%
X127533400Y-92838100D03*
%TO.P,C5,2*%
%TO.N,GND*%
X127533400Y-94563100D03*
%TD*%
D20*
%TO.P,R2,1*%
%TO.N,+3.3V*%
X127457200Y-91260300D03*
%TO.P,R2,2*%
%TO.N,/NRST*%
X127457200Y-89435300D03*
%TD*%
D16*
%TO.P,C9,1*%
%TO.N,/NRST*%
X128930400Y-89485300D03*
%TO.P,C9,2*%
%TO.N,GND*%
X128930400Y-91210300D03*
%TD*%
D21*
%TO.N,+3.3V*%
X137071500Y-96621600D03*
X132105400Y-87909400D03*
X132486400Y-93421200D03*
X127127000Y-87934800D03*
X126550218Y-91506221D03*
%TO.N,GND*%
X139369800Y-100685600D03*
X132029200Y-95377000D03*
X123748800Y-84328000D03*
X123113800Y-89916000D03*
X135077200Y-87909400D03*
X137134600Y-98069400D03*
X129616200Y-98018600D03*
X139954000Y-81153000D03*
X127508000Y-84607400D03*
X130810000Y-78562200D03*
X123926600Y-92100400D03*
%TO.N,+5V*%
X136677400Y-95123000D03*
%TO.N,/NRST*%
X126586051Y-90531667D03*
%TO.N,/PIN6*%
X133108229Y-99331898D03*
%TO.N,/PIN9*%
X125603000Y-93853000D03*
%TD*%
D22*
%TO.N,+3.3V*%
X132459900Y-92481400D02*
X132459900Y-93394700D01*
D23*
X126550218Y-91854918D02*
X126550218Y-91506221D01*
X127533400Y-92838100D02*
X126550218Y-91854918D01*
X127842200Y-93146900D02*
X131794400Y-93146900D01*
X126796139Y-91260300D02*
X126550218Y-91506221D01*
D22*
X132459900Y-93394700D02*
X132486400Y-93421200D01*
X137071500Y-96621600D02*
X138403500Y-96621600D01*
D23*
X127457200Y-91260300D02*
X126796139Y-91260300D01*
D22*
X127178900Y-87934800D02*
X127229700Y-87884000D01*
D23*
X127533400Y-92838100D02*
X127842200Y-93146900D01*
X131794400Y-93146900D02*
X132459900Y-92481400D01*
D22*
X127127000Y-87934800D02*
X127178900Y-87934800D01*
X138403500Y-96621600D02*
X138480800Y-96698900D01*
D24*
%TO.N,GND*%
X129311400Y-98323400D02*
X129616200Y-98018600D01*
X129311400Y-100101400D02*
X129311400Y-98323400D01*
%TO.N,+5V*%
X132080000Y-99363700D02*
X136372600Y-95071100D01*
X132080000Y-101498400D02*
X132080000Y-99363700D01*
D23*
%TO.N,/NRST*%
X127507200Y-89485300D02*
X127457200Y-89435300D01*
X128981200Y-89485300D02*
X127507200Y-89485300D01*
X127457200Y-89660518D02*
X126586051Y-90531667D01*
X127457200Y-89435300D02*
X127457200Y-89660518D01*
D22*
%TO.N,/PIN6*%
X134850000Y-101498400D02*
X134850000Y-101073669D01*
X134850000Y-101073669D02*
X133108229Y-99331898D01*
%TO.N,/PIN9*%
X125755400Y-94005400D02*
X125603000Y-93853000D01*
X125755400Y-97866200D02*
X125755400Y-94005400D01*
X126540000Y-98650800D02*
X125755400Y-97866200D01*
X126540000Y-101498400D02*
X126540000Y-98650800D01*
%TD*%
%TA.AperFunction,Conductor*%
%TO.N,GND*%
G36*
X122538955Y-76364585D02*
G01*
X122584710Y-76417389D01*
X122594654Y-76486547D01*
X122565629Y-76550103D01*
X122526760Y-76580112D01*
X122477593Y-76604358D01*
X122477580Y-76604365D01*
X122232350Y-76768223D01*
X122198958Y-76797506D01*
X122985388Y-77583936D01*
X122826931Y-77703599D01*
X122683348Y-77861101D01*
X122634439Y-77940091D01*
X121845406Y-77151058D01*
X121816123Y-77184450D01*
X121652265Y-77429680D01*
X121652258Y-77429693D01*
X121521812Y-77694211D01*
X121427005Y-77973500D01*
X121427001Y-77973515D01*
X121369464Y-78262775D01*
X121369462Y-78262787D01*
X121350172Y-78557100D01*
X121369462Y-78851412D01*
X121369464Y-78851424D01*
X121427001Y-79140684D01*
X121427005Y-79140699D01*
X121521812Y-79419988D01*
X121652258Y-79684506D01*
X121652265Y-79684519D01*
X121816122Y-79929748D01*
X121845406Y-79963139D01*
X122634438Y-79174107D01*
X122683348Y-79253099D01*
X122826931Y-79410601D01*
X122985388Y-79530263D01*
X122198959Y-80316692D01*
X122198959Y-80316693D01*
X122232344Y-80345972D01*
X122232348Y-80345975D01*
X122477580Y-80509834D01*
X122477593Y-80509841D01*
X122742111Y-80640287D01*
X123021400Y-80735094D01*
X123021415Y-80735098D01*
X123310675Y-80792635D01*
X123310687Y-80792637D01*
X123605000Y-80811927D01*
X123899312Y-80792637D01*
X123899324Y-80792635D01*
X124188584Y-80735098D01*
X124188599Y-80735094D01*
X124467888Y-80640287D01*
X124732406Y-80509841D01*
X124732419Y-80509834D01*
X124977650Y-80345977D01*
X125011039Y-80316693D01*
X125011040Y-80316692D01*
X124224611Y-79530263D01*
X124383069Y-79410601D01*
X124526652Y-79253099D01*
X124575560Y-79174108D01*
X125364592Y-79963140D01*
X125364593Y-79963139D01*
X125393877Y-79929750D01*
X125557734Y-79684519D01*
X125557741Y-79684506D01*
X125688187Y-79419988D01*
X125782994Y-79140699D01*
X125782998Y-79140684D01*
X125840535Y-78851424D01*
X125840537Y-78851412D01*
X125859827Y-78557100D01*
X125840537Y-78262787D01*
X125840535Y-78262775D01*
X125782998Y-77973515D01*
X125782994Y-77973500D01*
X125688187Y-77694211D01*
X125557741Y-77429693D01*
X125557734Y-77429680D01*
X125393875Y-77184448D01*
X125393872Y-77184444D01*
X125364593Y-77151059D01*
X125364592Y-77151059D01*
X124575560Y-77940091D01*
X124526652Y-77861101D01*
X124383069Y-77703599D01*
X124224610Y-77583935D01*
X125011039Y-76797506D01*
X124977648Y-76768222D01*
X124732419Y-76604365D01*
X124732406Y-76604358D01*
X124683240Y-76580112D01*
X124631821Y-76532807D01*
X124614139Y-76465212D01*
X124635809Y-76398787D01*
X124689950Y-76354623D01*
X124738084Y-76344900D01*
X135611916Y-76344900D01*
X135678955Y-76364585D01*
X135724710Y-76417389D01*
X135734654Y-76486547D01*
X135705629Y-76550103D01*
X135666760Y-76580112D01*
X135617593Y-76604358D01*
X135617580Y-76604365D01*
X135372350Y-76768223D01*
X135338958Y-76797506D01*
X136125388Y-77583936D01*
X135966931Y-77703599D01*
X135823348Y-77861101D01*
X135774439Y-77940091D01*
X134985406Y-77151058D01*
X134956123Y-77184450D01*
X134792265Y-77429680D01*
X134792258Y-77429693D01*
X134661812Y-77694211D01*
X134567005Y-77973500D01*
X134567001Y-77973515D01*
X134509464Y-78262775D01*
X134509462Y-78262787D01*
X134490172Y-78557100D01*
X134509462Y-78851412D01*
X134509464Y-78851424D01*
X134567001Y-79140684D01*
X134567005Y-79140699D01*
X134661812Y-79419988D01*
X134792258Y-79684506D01*
X134792265Y-79684519D01*
X134956122Y-79929748D01*
X134985406Y-79963139D01*
X135774438Y-79174107D01*
X135823348Y-79253099D01*
X135966931Y-79410601D01*
X136125388Y-79530263D01*
X135338959Y-80316692D01*
X135338959Y-80316693D01*
X135372344Y-80345972D01*
X135372348Y-80345975D01*
X135617580Y-80509834D01*
X135617593Y-80509841D01*
X135882111Y-80640287D01*
X136161400Y-80735094D01*
X136161415Y-80735098D01*
X136450675Y-80792635D01*
X136450687Y-80792637D01*
X136745000Y-80811927D01*
X137039312Y-80792637D01*
X137039324Y-80792635D01*
X137328584Y-80735098D01*
X137328599Y-80735094D01*
X137607888Y-80640287D01*
X137872406Y-80509841D01*
X137872419Y-80509834D01*
X138117650Y-80345977D01*
X138151039Y-80316693D01*
X138151040Y-80316692D01*
X137364611Y-79530263D01*
X137523069Y-79410601D01*
X137666652Y-79253099D01*
X137715560Y-79174108D01*
X138504592Y-79963140D01*
X138504593Y-79963139D01*
X138533877Y-79929750D01*
X138697734Y-79684519D01*
X138697741Y-79684506D01*
X138828187Y-79419988D01*
X138922994Y-79140699D01*
X138922998Y-79140684D01*
X138980535Y-78851424D01*
X138980537Y-78851412D01*
X138999827Y-78557100D01*
X138980537Y-78262787D01*
X138980535Y-78262775D01*
X138922998Y-77973515D01*
X138922994Y-77973500D01*
X138828187Y-77694211D01*
X138697741Y-77429693D01*
X138697734Y-77429680D01*
X138533875Y-77184448D01*
X138533872Y-77184444D01*
X138504593Y-77151059D01*
X138504592Y-77151059D01*
X137715560Y-77940091D01*
X137666652Y-77861101D01*
X137523069Y-77703599D01*
X137364610Y-77583935D01*
X138151039Y-76797506D01*
X138117648Y-76768222D01*
X137872419Y-76604365D01*
X137872406Y-76604358D01*
X137823240Y-76580112D01*
X137771821Y-76532807D01*
X137754139Y-76465212D01*
X137775809Y-76398787D01*
X137829950Y-76354623D01*
X137878084Y-76344900D01*
X141183700Y-76344900D01*
X141250739Y-76364585D01*
X141296494Y-76417389D01*
X141307700Y-76468900D01*
X141307700Y-103134500D01*
X141288015Y-103201539D01*
X141235211Y-103247294D01*
X141183700Y-103258500D01*
X135877834Y-103258500D01*
X135810795Y-103238815D01*
X135765040Y-103186011D01*
X135753834Y-103134500D01*
X135753833Y-99710529D01*
X135753832Y-99710523D01*
X135753831Y-99710516D01*
X135747425Y-99650917D01*
X135697130Y-99516069D01*
X135697129Y-99516068D01*
X135697127Y-99516064D01*
X135610881Y-99400855D01*
X135610878Y-99400852D01*
X135495669Y-99314606D01*
X135495662Y-99314602D01*
X135360816Y-99264308D01*
X135360817Y-99264308D01*
X135301217Y-99257901D01*
X135301215Y-99257900D01*
X135301207Y-99257900D01*
X135301199Y-99257900D01*
X134016270Y-99257900D01*
X133949231Y-99238215D01*
X133903476Y-99185411D01*
X133896210Y-99159187D01*
X133895146Y-99159430D01*
X133893597Y-99152643D01*
X133872991Y-99093755D01*
X133834018Y-98982376D01*
X133834017Y-98982375D01*
X133834016Y-98982371D01*
X133739209Y-98831488D01*
X133720208Y-98764252D01*
X133740575Y-98697417D01*
X133756516Y-98677840D01*
X133760456Y-98673900D01*
X137505801Y-98673900D01*
X137505801Y-98773054D01*
X137516119Y-98874052D01*
X137570346Y-99037700D01*
X137570351Y-99037711D01*
X137660852Y-99184434D01*
X137660855Y-99184438D01*
X137782761Y-99306344D01*
X137782765Y-99306347D01*
X137929488Y-99396848D01*
X137929499Y-99396853D01*
X138093147Y-99451080D01*
X138194152Y-99461399D01*
X138230800Y-99461399D01*
X138230800Y-98673900D01*
X138730800Y-98673900D01*
X138730800Y-99461399D01*
X138767440Y-99461399D01*
X138767454Y-99461398D01*
X138868452Y-99451080D01*
X139032100Y-99396853D01*
X139032111Y-99396848D01*
X139178834Y-99306347D01*
X139178838Y-99306344D01*
X139300744Y-99184438D01*
X139300747Y-99184434D01*
X139391248Y-99037711D01*
X139391253Y-99037700D01*
X139445480Y-98874052D01*
X139455799Y-98773054D01*
X139455800Y-98773041D01*
X139455800Y-98673900D01*
X138730800Y-98673900D01*
X138230800Y-98673900D01*
X137505801Y-98673900D01*
X133760456Y-98673900D01*
X136072902Y-96361453D01*
X136134223Y-96327970D01*
X136203915Y-96332954D01*
X136259848Y-96374826D01*
X136284265Y-96440290D01*
X136283801Y-96463019D01*
X136265935Y-96621595D01*
X136265935Y-96621603D01*
X136286130Y-96800849D01*
X136286131Y-96800854D01*
X136345711Y-96971123D01*
X136394065Y-97048077D01*
X136441684Y-97123862D01*
X136569238Y-97251416D01*
X136659580Y-97308182D01*
X136707409Y-97338235D01*
X136721978Y-97347389D01*
X136805933Y-97376766D01*
X136892245Y-97406968D01*
X136892250Y-97406969D01*
X137071496Y-97427165D01*
X137071500Y-97427165D01*
X137071504Y-97427165D01*
X137250749Y-97406969D01*
X137250752Y-97406968D01*
X137250755Y-97406968D01*
X137421022Y-97347389D01*
X137437763Y-97336869D01*
X137504998Y-97317869D01*
X137571834Y-97338235D01*
X137609274Y-97376766D01*
X137660457Y-97459746D01*
X137660460Y-97459750D01*
X137674782Y-97474072D01*
X137708267Y-97535395D01*
X137703283Y-97605087D01*
X137674785Y-97649432D01*
X137660852Y-97663365D01*
X137570351Y-97810088D01*
X137570346Y-97810099D01*
X137516119Y-97973747D01*
X137505800Y-98074745D01*
X137505800Y-98173900D01*
X139455799Y-98173900D01*
X139455799Y-98074760D01*
X139455798Y-98074745D01*
X139445480Y-97973747D01*
X139391253Y-97810099D01*
X139391248Y-97810088D01*
X139300747Y-97663365D01*
X139300744Y-97663361D01*
X139286817Y-97649434D01*
X139253332Y-97588111D01*
X139258316Y-97518419D01*
X139286817Y-97474072D01*
X139301140Y-97459750D01*
X139391708Y-97312916D01*
X139445974Y-97149153D01*
X139456300Y-97048077D01*
X139456299Y-96349724D01*
X139448367Y-96272078D01*
X139445974Y-96248647D01*
X139391708Y-96084884D01*
X139301140Y-95938050D01*
X139179150Y-95816060D01*
X139032316Y-95725492D01*
X138868553Y-95671226D01*
X138868551Y-95671225D01*
X138767478Y-95660900D01*
X138194130Y-95660900D01*
X138194112Y-95660901D01*
X138093047Y-95671225D01*
X137929284Y-95725492D01*
X137929281Y-95725493D01*
X137782451Y-95816059D01*
X137663929Y-95934581D01*
X137602606Y-95968065D01*
X137532914Y-95963081D01*
X137510276Y-95951893D01*
X137421019Y-95895809D01*
X137346550Y-95869751D01*
X137289774Y-95829030D01*
X137264027Y-95764077D01*
X137277483Y-95695515D01*
X137281959Y-95687625D01*
X137283508Y-95685116D01*
X137294294Y-95652561D01*
X137307007Y-95625593D01*
X137307213Y-95625264D01*
X137307216Y-95625262D01*
X137403189Y-95472522D01*
X137462768Y-95302255D01*
X137482965Y-95123000D01*
X137475409Y-95055942D01*
X137462769Y-94943750D01*
X137462768Y-94943745D01*
X137403188Y-94773476D01*
X137359111Y-94703328D01*
X137340747Y-94649955D01*
X137337774Y-94620847D01*
X137326021Y-94585380D01*
X137283508Y-94457084D01*
X137192940Y-94310250D01*
X137178617Y-94295927D01*
X137145132Y-94234604D01*
X137150116Y-94164912D01*
X137178621Y-94120560D01*
X137192547Y-94106635D01*
X137283048Y-93959911D01*
X137283053Y-93959900D01*
X137337280Y-93796252D01*
X137347599Y-93695254D01*
X137347600Y-93695241D01*
X137347600Y-93596100D01*
X135397601Y-93596100D01*
X135397601Y-93695254D01*
X135407919Y-93796252D01*
X135462146Y-93959900D01*
X135462151Y-93959911D01*
X135552652Y-94106634D01*
X135552655Y-94106638D01*
X135566582Y-94120565D01*
X135600067Y-94181888D01*
X135595083Y-94251580D01*
X135566584Y-94295925D01*
X135552261Y-94310248D01*
X135461693Y-94457081D01*
X135461691Y-94457086D01*
X135441888Y-94516848D01*
X135407426Y-94620847D01*
X135407426Y-94620848D01*
X135407425Y-94620848D01*
X135397100Y-94721915D01*
X135397100Y-95004580D01*
X135377415Y-95071619D01*
X135360781Y-95092261D01*
X131600966Y-98852075D01*
X131598240Y-98854642D01*
X131551818Y-98895768D01*
X131516586Y-98946809D01*
X131514368Y-98949824D01*
X131476124Y-98998639D01*
X131476119Y-98998648D01*
X131471960Y-99007888D01*
X131460942Y-99027423D01*
X131455187Y-99035761D01*
X131455183Y-99035767D01*
X131455182Y-99035770D01*
X131455180Y-99035774D01*
X131455179Y-99035777D01*
X131433189Y-99093755D01*
X131431757Y-99097213D01*
X131406305Y-99153767D01*
X131405849Y-99156258D01*
X131405011Y-99157919D01*
X131404075Y-99160925D01*
X131403575Y-99160769D01*
X131374399Y-99218650D01*
X131314211Y-99254134D01*
X131283881Y-99257900D01*
X130588795Y-99257900D01*
X130588789Y-99257901D01*
X130529182Y-99264308D01*
X130394337Y-99314602D01*
X130394330Y-99314606D01*
X130279121Y-99400852D01*
X130279117Y-99400856D01*
X130273949Y-99407760D01*
X130218013Y-99449628D01*
X130148321Y-99454607D01*
X130087000Y-99421118D01*
X130075419Y-99407752D01*
X130070521Y-99401209D01*
X129955427Y-99315049D01*
X129955420Y-99315045D01*
X129820713Y-99264803D01*
X129820706Y-99264801D01*
X129761178Y-99258400D01*
X129040000Y-99258400D01*
X129040000Y-101624400D01*
X129020315Y-101691439D01*
X128967511Y-101737194D01*
X128916000Y-101748400D01*
X128664000Y-101748400D01*
X128596961Y-101728715D01*
X128551206Y-101675911D01*
X128540000Y-101624400D01*
X128540000Y-99258400D01*
X127818821Y-99258400D01*
X127759293Y-99264801D01*
X127759286Y-99264803D01*
X127624579Y-99315045D01*
X127624572Y-99315049D01*
X127509479Y-99401209D01*
X127504577Y-99407757D01*
X127448642Y-99449626D01*
X127378950Y-99454608D01*
X127317628Y-99421121D01*
X127306047Y-99407756D01*
X127300881Y-99400855D01*
X127295535Y-99396853D01*
X127190188Y-99317990D01*
X127148318Y-99262057D01*
X127140500Y-99218724D01*
X127140500Y-98694227D01*
X127141031Y-98686126D01*
X127145682Y-98650800D01*
X127145682Y-98650798D01*
X127125044Y-98494039D01*
X127125042Y-98494034D01*
X127064538Y-98347963D01*
X127064538Y-98347962D01*
X127064536Y-98347959D01*
X126992450Y-98254015D01*
X126980366Y-98238266D01*
X126968283Y-98222518D01*
X126940009Y-98200823D01*
X126933912Y-98195477D01*
X126392219Y-97653784D01*
X126358734Y-97592461D01*
X126355900Y-97566103D01*
X126355900Y-95139431D01*
X126375585Y-95072392D01*
X126428389Y-95026637D01*
X126497547Y-95016693D01*
X126561103Y-95045718D01*
X126597606Y-95100427D01*
X126622946Y-95176900D01*
X126622951Y-95176911D01*
X126713452Y-95323634D01*
X126713455Y-95323638D01*
X126835361Y-95445544D01*
X126835365Y-95445547D01*
X126982088Y-95536048D01*
X126982099Y-95536053D01*
X127145747Y-95590280D01*
X127246752Y-95600599D01*
X127283400Y-95600599D01*
X127283400Y-94813100D01*
X127783400Y-94813100D01*
X127783400Y-95600599D01*
X127820040Y-95600599D01*
X127820054Y-95600598D01*
X127921052Y-95590280D01*
X128084700Y-95536053D01*
X128084711Y-95536048D01*
X128231434Y-95445547D01*
X128231438Y-95445544D01*
X128353344Y-95323638D01*
X128353347Y-95323634D01*
X128443848Y-95176911D01*
X128443853Y-95176900D01*
X128498080Y-95013252D01*
X128508399Y-94912254D01*
X128508400Y-94912241D01*
X128508400Y-94813100D01*
X127783400Y-94813100D01*
X127283400Y-94813100D01*
X127283400Y-94437100D01*
X127303085Y-94370061D01*
X127355889Y-94324306D01*
X127407400Y-94313100D01*
X128508399Y-94313100D01*
X128508399Y-94213960D01*
X128508398Y-94213945D01*
X128498080Y-94112947D01*
X128443853Y-93949299D01*
X128443851Y-93949294D01*
X128413444Y-93899997D01*
X128395004Y-93832604D01*
X128415927Y-93765941D01*
X128469569Y-93721171D01*
X128518983Y-93710900D01*
X131654489Y-93710900D01*
X131721528Y-93730585D01*
X131759482Y-93768927D01*
X131856582Y-93923460D01*
X131856584Y-93923462D01*
X131984138Y-94051016D01*
X132058422Y-94097692D01*
X132094816Y-94120560D01*
X132136878Y-94146989D01*
X132236614Y-94181888D01*
X132307145Y-94206568D01*
X132307150Y-94206569D01*
X132486396Y-94226765D01*
X132486400Y-94226765D01*
X132486404Y-94226765D01*
X132665649Y-94206569D01*
X132665652Y-94206568D01*
X132665655Y-94206568D01*
X132835922Y-94146989D01*
X132988662Y-94051016D01*
X133116216Y-93923462D01*
X133212189Y-93770722D01*
X133271768Y-93600455D01*
X133271938Y-93598951D01*
X133291965Y-93421202D01*
X133291965Y-93421198D01*
X133287671Y-93383093D01*
X133279342Y-93309173D01*
X133291396Y-93240353D01*
X133314880Y-93207609D01*
X133342740Y-93179750D01*
X133394336Y-93096100D01*
X135397600Y-93096100D01*
X136122600Y-93096100D01*
X136622600Y-93096100D01*
X137347599Y-93096100D01*
X137360620Y-93083078D01*
X137367284Y-93060386D01*
X137420088Y-93014631D01*
X137489246Y-93004687D01*
X137552802Y-93033712D01*
X137573174Y-93056302D01*
X137645500Y-93159595D01*
X137645505Y-93159601D01*
X137812599Y-93326695D01*
X137846935Y-93350737D01*
X138006165Y-93462232D01*
X138006167Y-93462233D01*
X138006170Y-93462235D01*
X138220337Y-93562103D01*
X138448592Y-93623263D01*
X138636918Y-93639739D01*
X138683999Y-93643859D01*
X138684000Y-93643859D01*
X138684001Y-93643859D01*
X138723234Y-93640426D01*
X138919408Y-93623263D01*
X139147663Y-93562103D01*
X139361830Y-93462235D01*
X139555401Y-93326695D01*
X139722495Y-93159601D01*
X139858035Y-92966030D01*
X139957903Y-92751863D01*
X140019063Y-92523608D01*
X140039659Y-92288200D01*
X140019063Y-92052792D01*
X139957903Y-91824537D01*
X139858035Y-91610371D01*
X139854831Y-91605794D01*
X139722494Y-91416797D01*
X139555402Y-91249706D01*
X139555401Y-91249705D01*
X139369405Y-91119469D01*
X139325781Y-91064892D01*
X139318588Y-90995393D01*
X139350110Y-90933039D01*
X139369405Y-90916319D01*
X139555082Y-90786305D01*
X139722105Y-90619282D01*
X139857600Y-90425778D01*
X139957429Y-90211692D01*
X139957432Y-90211686D01*
X140014636Y-89998200D01*
X139117686Y-89998200D01*
X139143493Y-89958044D01*
X139184000Y-89820089D01*
X139184000Y-89676311D01*
X139143493Y-89538356D01*
X139117686Y-89498200D01*
X140014636Y-89498200D01*
X140014635Y-89498199D01*
X139957432Y-89284713D01*
X139957429Y-89284707D01*
X139857600Y-89070622D01*
X139857599Y-89070620D01*
X139722113Y-88877126D01*
X139722108Y-88877120D01*
X139555078Y-88710090D01*
X139369405Y-88580079D01*
X139325780Y-88525502D01*
X139318588Y-88456004D01*
X139350110Y-88393649D01*
X139369406Y-88376930D01*
X139555401Y-88246695D01*
X139722495Y-88079601D01*
X139858035Y-87886030D01*
X139957903Y-87671863D01*
X140019063Y-87443608D01*
X140039659Y-87208200D01*
X140019063Y-86972792D01*
X139957903Y-86744537D01*
X139858035Y-86530371D01*
X139722495Y-86336799D01*
X139600567Y-86214871D01*
X139567084Y-86153551D01*
X139572068Y-86083859D01*
X139613939Y-86027925D01*
X139644915Y-86011010D01*
X139776331Y-85961996D01*
X139891546Y-85875746D01*
X139977796Y-85760531D01*
X140028091Y-85625683D01*
X140034500Y-85566073D01*
X140034499Y-83770328D01*
X140028091Y-83710717D01*
X139977796Y-83575869D01*
X139977795Y-83575868D01*
X139977793Y-83575864D01*
X139891547Y-83460655D01*
X139891544Y-83460652D01*
X139776335Y-83374406D01*
X139776328Y-83374402D01*
X139641482Y-83324108D01*
X139641483Y-83324108D01*
X139581883Y-83317701D01*
X139581881Y-83317700D01*
X139581873Y-83317700D01*
X139581864Y-83317700D01*
X137786129Y-83317700D01*
X137786123Y-83317701D01*
X137726516Y-83324108D01*
X137591671Y-83374402D01*
X137591664Y-83374406D01*
X137476455Y-83460652D01*
X137476452Y-83460655D01*
X137390206Y-83575864D01*
X137390202Y-83575871D01*
X137339908Y-83710717D01*
X137333501Y-83770316D01*
X137333501Y-83770323D01*
X137333500Y-83770335D01*
X137333500Y-85566070D01*
X137333501Y-85566076D01*
X137339908Y-85625683D01*
X137390202Y-85760528D01*
X137390206Y-85760535D01*
X137476452Y-85875744D01*
X137476455Y-85875747D01*
X137591664Y-85961993D01*
X137591671Y-85961997D01*
X137723081Y-86011010D01*
X137779015Y-86052881D01*
X137803432Y-86118345D01*
X137788580Y-86186618D01*
X137767430Y-86214873D01*
X137645503Y-86336800D01*
X137509965Y-86530369D01*
X137509964Y-86530371D01*
X137410098Y-86744535D01*
X137410094Y-86744544D01*
X137348938Y-86972786D01*
X137348936Y-86972796D01*
X137328341Y-87208199D01*
X137328341Y-87208200D01*
X137348936Y-87443603D01*
X137348938Y-87443613D01*
X137410094Y-87671855D01*
X137410096Y-87671859D01*
X137410097Y-87671863D01*
X137509965Y-87886030D01*
X137509967Y-87886034D01*
X137645501Y-88079595D01*
X137645506Y-88079602D01*
X137812597Y-88246693D01*
X137812603Y-88246698D01*
X137998594Y-88376930D01*
X138042219Y-88431507D01*
X138049413Y-88501005D01*
X138017890Y-88563360D01*
X137998595Y-88580080D01*
X137812922Y-88710090D01*
X137812920Y-88710091D01*
X137645891Y-88877120D01*
X137645886Y-88877126D01*
X137510400Y-89070620D01*
X137510399Y-89070622D01*
X137410570Y-89284707D01*
X137410567Y-89284713D01*
X137353364Y-89498199D01*
X137353364Y-89498200D01*
X138250314Y-89498200D01*
X138224507Y-89538356D01*
X138184000Y-89676311D01*
X138184000Y-89820089D01*
X138224507Y-89958044D01*
X138250314Y-89998200D01*
X137353364Y-89998200D01*
X137410567Y-90211686D01*
X137410570Y-90211692D01*
X137510399Y-90425778D01*
X137645894Y-90619282D01*
X137812917Y-90786305D01*
X137998595Y-90916319D01*
X138042219Y-90970896D01*
X138049412Y-91040395D01*
X138017890Y-91102749D01*
X137998595Y-91119469D01*
X137812594Y-91249708D01*
X137645505Y-91416797D01*
X137509965Y-91610369D01*
X137509964Y-91610371D01*
X137410098Y-91824535D01*
X137410094Y-91824544D01*
X137348938Y-92052786D01*
X137348936Y-92052796D01*
X137328341Y-92288199D01*
X137328341Y-92288201D01*
X137340178Y-92423498D01*
X137326411Y-92491998D01*
X137277796Y-92542181D01*
X137209768Y-92558114D01*
X137143924Y-92534739D01*
X137128969Y-92521986D01*
X137070638Y-92463655D01*
X137070634Y-92463652D01*
X136923911Y-92373151D01*
X136923900Y-92373146D01*
X136760252Y-92318919D01*
X136659254Y-92308600D01*
X136622600Y-92308600D01*
X136622600Y-93096100D01*
X136122600Y-93096100D01*
X136122600Y-92308600D01*
X136085961Y-92308600D01*
X136085943Y-92308601D01*
X135984947Y-92318919D01*
X135821299Y-92373146D01*
X135821288Y-92373151D01*
X135674565Y-92463652D01*
X135674561Y-92463655D01*
X135552655Y-92585561D01*
X135552652Y-92585565D01*
X135462151Y-92732288D01*
X135462146Y-92732299D01*
X135407919Y-92895947D01*
X135397600Y-92996945D01*
X135397600Y-93096100D01*
X133394336Y-93096100D01*
X133433308Y-93032916D01*
X133487574Y-92869153D01*
X133497900Y-92768077D01*
X133497899Y-92194724D01*
X133487574Y-92093647D01*
X133433308Y-91929884D01*
X133342740Y-91783050D01*
X133220750Y-91661060D01*
X133097228Y-91584871D01*
X133073918Y-91570493D01*
X133073913Y-91570491D01*
X133040675Y-91559477D01*
X132910153Y-91516226D01*
X132910151Y-91516225D01*
X132809078Y-91505900D01*
X132110730Y-91505900D01*
X132110712Y-91505901D01*
X132009647Y-91516225D01*
X131845884Y-91570492D01*
X131845881Y-91570493D01*
X131699048Y-91661061D01*
X131684725Y-91675384D01*
X131623401Y-91708868D01*
X131553709Y-91703882D01*
X131509365Y-91675382D01*
X131495438Y-91661455D01*
X131495434Y-91661452D01*
X131348711Y-91570951D01*
X131348700Y-91570946D01*
X131185052Y-91516719D01*
X131084054Y-91506400D01*
X130984900Y-91506400D01*
X130984900Y-92458900D01*
X130965215Y-92525939D01*
X130912411Y-92571694D01*
X130860900Y-92582900D01*
X128630477Y-92582900D01*
X128563438Y-92563215D01*
X128517683Y-92510411D01*
X128507119Y-92471502D01*
X128498574Y-92387847D01*
X128498572Y-92387843D01*
X128498054Y-92382765D01*
X128510824Y-92314072D01*
X128558704Y-92263188D01*
X128626494Y-92246267D01*
X128634016Y-92246805D01*
X128643753Y-92247799D01*
X128680400Y-92247799D01*
X128680400Y-91460300D01*
X129180400Y-91460300D01*
X129180400Y-92247799D01*
X129217040Y-92247799D01*
X129217054Y-92247798D01*
X129318052Y-92237480D01*
X129481700Y-92183253D01*
X129481707Y-92183250D01*
X129508302Y-92166846D01*
X129575694Y-92148405D01*
X129642358Y-92169327D01*
X129677841Y-92211841D01*
X129697400Y-92231400D01*
X130484900Y-92231400D01*
X130484900Y-91506399D01*
X130385760Y-91506400D01*
X130385744Y-91506401D01*
X130284747Y-91516719D01*
X130121099Y-91570946D01*
X130121090Y-91570951D01*
X130094496Y-91587354D01*
X130027103Y-91605794D01*
X129960440Y-91584871D01*
X129915671Y-91531228D01*
X129905400Y-91481815D01*
X129905400Y-91460300D01*
X129180400Y-91460300D01*
X128680400Y-91460300D01*
X128680400Y-91084300D01*
X128700085Y-91017261D01*
X128752889Y-90971506D01*
X128804400Y-90960300D01*
X129905399Y-90960300D01*
X129905399Y-90861160D01*
X129905398Y-90861145D01*
X129895080Y-90760147D01*
X129840853Y-90596499D01*
X129840848Y-90596488D01*
X129750347Y-90449765D01*
X129750344Y-90449761D01*
X129736417Y-90435834D01*
X129702932Y-90374511D01*
X129707916Y-90304819D01*
X129736417Y-90260472D01*
X129750740Y-90246150D01*
X129841308Y-90099316D01*
X129895574Y-89935553D01*
X129898093Y-89910900D01*
X131181201Y-89910900D01*
X131181201Y-90010054D01*
X131191519Y-90111052D01*
X131245746Y-90274700D01*
X131245751Y-90274711D01*
X131336252Y-90421434D01*
X131336255Y-90421438D01*
X131458161Y-90543344D01*
X131458165Y-90543347D01*
X131604888Y-90633848D01*
X131604899Y-90633853D01*
X131768547Y-90688080D01*
X131869552Y-90698399D01*
X131906200Y-90698399D01*
X131906200Y-89910900D01*
X132406200Y-89910900D01*
X132406200Y-90698399D01*
X132442840Y-90698399D01*
X132442854Y-90698398D01*
X132543852Y-90688080D01*
X132707500Y-90633853D01*
X132707511Y-90633848D01*
X132854234Y-90543347D01*
X132854238Y-90543344D01*
X132976144Y-90421438D01*
X132976147Y-90421434D01*
X133066648Y-90274711D01*
X133066653Y-90274700D01*
X133120880Y-90111052D01*
X133131199Y-90010054D01*
X133131200Y-90010041D01*
X133131200Y-89910900D01*
X132406200Y-89910900D01*
X131906200Y-89910900D01*
X131181201Y-89910900D01*
X129898093Y-89910900D01*
X129905900Y-89834477D01*
X129905899Y-89136124D01*
X129895574Y-89035047D01*
X129841308Y-88871284D01*
X129841304Y-88871278D01*
X129841303Y-88871275D01*
X129780845Y-88773258D01*
X129762404Y-88705866D01*
X129783326Y-88639202D01*
X129798704Y-88620478D01*
X129837144Y-88582039D01*
X129837145Y-88582037D01*
X129927648Y-88435311D01*
X129927653Y-88435300D01*
X129977434Y-88285069D01*
X131180700Y-88285069D01*
X131180701Y-88285087D01*
X131191025Y-88386152D01*
X131214172Y-88456004D01*
X131245292Y-88549916D01*
X131335859Y-88696749D01*
X131335861Y-88696751D01*
X131350182Y-88711072D01*
X131383667Y-88772395D01*
X131378683Y-88842087D01*
X131350185Y-88886432D01*
X131336252Y-88900365D01*
X131245751Y-89047088D01*
X131245746Y-89047099D01*
X131191519Y-89210747D01*
X131181200Y-89311745D01*
X131181200Y-89410900D01*
X133131199Y-89410900D01*
X133131199Y-89311760D01*
X133131198Y-89311745D01*
X133120880Y-89210747D01*
X133066653Y-89047099D01*
X133066648Y-89047088D01*
X132976147Y-88900365D01*
X132976144Y-88900361D01*
X132962217Y-88886434D01*
X132928732Y-88825111D01*
X132933716Y-88755419D01*
X132962217Y-88711072D01*
X132976540Y-88696750D01*
X133067108Y-88549916D01*
X133121374Y-88386153D01*
X133131700Y-88285077D01*
X133131699Y-87586724D01*
X133121374Y-87485647D01*
X133067108Y-87321884D01*
X132976540Y-87175050D01*
X132854550Y-87053060D01*
X132763329Y-86996795D01*
X132707718Y-86962493D01*
X132707713Y-86962491D01*
X132706269Y-86962012D01*
X132543953Y-86908226D01*
X132543951Y-86908225D01*
X132442878Y-86897900D01*
X131869530Y-86897900D01*
X131869512Y-86897901D01*
X131768447Y-86908225D01*
X131604684Y-86962492D01*
X131604681Y-86962493D01*
X131457848Y-87053061D01*
X131335861Y-87175048D01*
X131245293Y-87321881D01*
X131245292Y-87321884D01*
X131191026Y-87485647D01*
X131191026Y-87485648D01*
X131191025Y-87485648D01*
X131180700Y-87586715D01*
X131180700Y-88285069D01*
X129977434Y-88285069D01*
X129981880Y-88271652D01*
X129992199Y-88170654D01*
X129992200Y-88170641D01*
X129992200Y-88134000D01*
X128828700Y-88134000D01*
X128761661Y-88114315D01*
X128715906Y-88061511D01*
X128704700Y-88010000D01*
X128704700Y-86909000D01*
X129204700Y-86909000D01*
X129204700Y-87634000D01*
X129992199Y-87634000D01*
X129992199Y-87597360D01*
X129992198Y-87597345D01*
X129981880Y-87496347D01*
X129927653Y-87332699D01*
X129927648Y-87332688D01*
X129837147Y-87185965D01*
X129837144Y-87185961D01*
X129715238Y-87064055D01*
X129715234Y-87064052D01*
X129568511Y-86973551D01*
X129568500Y-86973546D01*
X129404852Y-86919319D01*
X129303854Y-86909000D01*
X129204700Y-86909000D01*
X128704700Y-86909000D01*
X128704700Y-86908999D01*
X128605560Y-86909000D01*
X128605544Y-86909001D01*
X128504547Y-86919319D01*
X128340899Y-86973546D01*
X128340888Y-86973551D01*
X128194165Y-87064052D01*
X128180232Y-87077985D01*
X128118908Y-87111468D01*
X128049216Y-87106482D01*
X128004872Y-87077982D01*
X127990551Y-87063661D01*
X127990550Y-87063660D01*
X127899329Y-87007395D01*
X127843718Y-86973093D01*
X127843713Y-86973091D01*
X127842269Y-86972612D01*
X127679953Y-86918826D01*
X127679951Y-86918825D01*
X127578878Y-86908500D01*
X126880530Y-86908500D01*
X126880512Y-86908501D01*
X126779447Y-86918825D01*
X126615684Y-86973092D01*
X126615681Y-86973093D01*
X126468848Y-87063661D01*
X126346861Y-87185648D01*
X126256293Y-87332481D01*
X126256291Y-87332486D01*
X126228919Y-87415088D01*
X126202026Y-87496247D01*
X126202026Y-87496248D01*
X126202025Y-87496248D01*
X126191700Y-87597315D01*
X126191700Y-88170669D01*
X126191701Y-88170687D01*
X126202025Y-88271752D01*
X126206441Y-88285077D01*
X126256220Y-88435300D01*
X126256292Y-88435515D01*
X126256293Y-88435518D01*
X126285027Y-88482103D01*
X126346860Y-88582350D01*
X126468850Y-88704340D01*
X126495631Y-88720859D01*
X126542355Y-88772804D01*
X126553579Y-88841767D01*
X126548241Y-88865401D01*
X126492026Y-89035047D01*
X126492025Y-89035048D01*
X126481700Y-89136115D01*
X126481700Y-89632106D01*
X126462015Y-89699145D01*
X126409211Y-89744900D01*
X126398654Y-89749148D01*
X126236529Y-89805877D01*
X126083788Y-89901851D01*
X125956235Y-90029404D01*
X125860262Y-90182143D01*
X125800682Y-90352412D01*
X125800681Y-90352417D01*
X125780486Y-90531663D01*
X125780486Y-90531670D01*
X125800681Y-90710916D01*
X125800682Y-90710921D01*
X125860262Y-90881190D01*
X125887449Y-90924457D01*
X125906449Y-90991693D01*
X125887449Y-91056400D01*
X125824430Y-91156695D01*
X125764849Y-91326966D01*
X125764848Y-91326971D01*
X125744653Y-91506217D01*
X125744653Y-91506224D01*
X125764848Y-91685470D01*
X125764849Y-91685475D01*
X125824429Y-91855744D01*
X125920402Y-92008483D01*
X126047955Y-92136036D01*
X126053402Y-92140380D01*
X126052439Y-92141587D01*
X126075153Y-92162273D01*
X126147968Y-92257168D01*
X126167994Y-92272534D01*
X126174324Y-92277392D01*
X126180419Y-92282736D01*
X126369186Y-92471502D01*
X126521581Y-92623897D01*
X126555066Y-92685220D01*
X126557900Y-92711578D01*
X126557900Y-93187269D01*
X126557901Y-93187287D01*
X126568225Y-93288352D01*
X126580931Y-93326695D01*
X126612247Y-93421200D01*
X126622492Y-93452115D01*
X126622493Y-93452118D01*
X126628733Y-93462234D01*
X126690331Y-93562101D01*
X126713061Y-93598951D01*
X126727382Y-93613272D01*
X126760867Y-93674595D01*
X126755883Y-93744287D01*
X126727385Y-93788632D01*
X126713453Y-93802563D01*
X126638103Y-93924725D01*
X126586155Y-93971449D01*
X126517192Y-93982670D01*
X126453110Y-93954827D01*
X126414255Y-93896758D01*
X126408565Y-93859627D01*
X126408565Y-93852996D01*
X126388369Y-93673750D01*
X126388368Y-93673745D01*
X126377910Y-93643859D01*
X126328789Y-93503478D01*
X126296515Y-93452115D01*
X126289582Y-93441080D01*
X126232816Y-93350738D01*
X126105262Y-93223184D01*
X125952523Y-93127211D01*
X125782254Y-93067631D01*
X125782249Y-93067630D01*
X125603004Y-93047435D01*
X125602996Y-93047435D01*
X125423750Y-93067630D01*
X125423745Y-93067631D01*
X125253476Y-93127211D01*
X125100737Y-93223184D01*
X124973184Y-93350737D01*
X124877211Y-93503476D01*
X124817631Y-93673745D01*
X124817630Y-93673750D01*
X124797435Y-93852996D01*
X124797435Y-93853003D01*
X124817630Y-94032249D01*
X124817631Y-94032254D01*
X124877211Y-94202523D01*
X124973184Y-94355262D01*
X125100737Y-94482815D01*
X125106184Y-94487159D01*
X125104606Y-94489137D01*
X125143153Y-94532700D01*
X125154900Y-94585380D01*
X125154900Y-97822771D01*
X125154369Y-97830873D01*
X125149718Y-97866199D01*
X125149718Y-97866200D01*
X125154900Y-97905560D01*
X125170355Y-98022960D01*
X125170356Y-98022962D01*
X125230864Y-98169041D01*
X125327118Y-98294482D01*
X125355395Y-98316180D01*
X125361485Y-98321520D01*
X125690763Y-98650798D01*
X125903181Y-98863216D01*
X125936666Y-98924539D01*
X125939500Y-98950897D01*
X125939500Y-99133900D01*
X125919815Y-99200939D01*
X125867011Y-99246694D01*
X125815500Y-99257900D01*
X125048795Y-99257900D01*
X125048789Y-99257901D01*
X124989182Y-99264308D01*
X124854337Y-99314602D01*
X124854330Y-99314606D01*
X124739121Y-99400852D01*
X124739118Y-99400855D01*
X124652872Y-99516064D01*
X124652868Y-99516071D01*
X124602574Y-99650917D01*
X124596167Y-99710516D01*
X124596167Y-99710523D01*
X124596166Y-99710535D01*
X124596167Y-103134500D01*
X124576482Y-103201539D01*
X124523678Y-103247294D01*
X124472167Y-103258500D01*
X119166300Y-103258500D01*
X119099261Y-103238815D01*
X119053506Y-103186011D01*
X119042300Y-103134500D01*
X119042300Y-81267100D01*
X125408179Y-81267100D01*
X125427424Y-81487076D01*
X125427426Y-81487086D01*
X125484575Y-81700370D01*
X125484580Y-81700384D01*
X125577899Y-81900507D01*
X125577900Y-81900509D01*
X125623258Y-81965287D01*
X126221220Y-81367325D01*
X126221467Y-81370616D01*
X126272128Y-81499698D01*
X126358586Y-81608113D01*
X126473159Y-81686227D01*
X126577301Y-81718350D01*
X125976811Y-82318841D01*
X126041582Y-82364194D01*
X126041592Y-82364200D01*
X126241715Y-82457519D01*
X126241729Y-82457524D01*
X126455013Y-82514673D01*
X126455023Y-82514675D01*
X126674999Y-82533921D01*
X126675001Y-82533921D01*
X126894976Y-82514675D01*
X126894986Y-82514673D01*
X127108270Y-82457524D01*
X127108284Y-82457519D01*
X127308408Y-82364200D01*
X127308420Y-82364193D01*
X127373186Y-82318842D01*
X127373187Y-82318840D01*
X126772020Y-81717672D01*
X126812119Y-81711629D01*
X126937054Y-81651463D01*
X127038705Y-81557145D01*
X127108039Y-81437055D01*
X127124850Y-81363397D01*
X127726740Y-81965287D01*
X127726742Y-81965286D01*
X127772093Y-81900520D01*
X127772095Y-81900517D01*
X127812341Y-81814209D01*
X127858513Y-81761770D01*
X127925707Y-81742617D01*
X127992588Y-81762832D01*
X128037106Y-81814209D01*
X128077464Y-81900758D01*
X128077468Y-81900766D01*
X128204170Y-82081715D01*
X128204175Y-82081721D01*
X128360378Y-82237924D01*
X128360384Y-82237929D01*
X128541333Y-82364631D01*
X128541335Y-82364632D01*
X128541338Y-82364634D01*
X128741550Y-82457994D01*
X128954932Y-82515170D01*
X129112123Y-82528922D01*
X129174998Y-82534423D01*
X129175000Y-82534423D01*
X129175002Y-82534423D01*
X129230151Y-82529598D01*
X129395068Y-82515170D01*
X129608450Y-82457994D01*
X129808662Y-82364634D01*
X129989620Y-82237926D01*
X130087319Y-82140227D01*
X130148642Y-82106742D01*
X130218334Y-82111726D01*
X130262681Y-82140227D01*
X130360378Y-82237924D01*
X130360384Y-82237929D01*
X130541333Y-82364631D01*
X130541335Y-82364632D01*
X130541338Y-82364634D01*
X130741550Y-82457994D01*
X130954932Y-82515170D01*
X131112123Y-82528922D01*
X131174998Y-82534423D01*
X131175000Y-82534423D01*
X131175002Y-82534423D01*
X131230151Y-82529598D01*
X131395068Y-82515170D01*
X131608450Y-82457994D01*
X131808662Y-82364634D01*
X131989620Y-82237926D01*
X132145826Y-82081720D01*
X132187907Y-82021620D01*
X132242481Y-81977997D01*
X132311980Y-81970803D01*
X132374335Y-82002325D01*
X132409749Y-82062554D01*
X132412771Y-82079490D01*
X132418909Y-82136583D01*
X132469202Y-82271428D01*
X132469206Y-82271435D01*
X132555452Y-82386644D01*
X132555455Y-82386647D01*
X132670664Y-82472893D01*
X132670671Y-82472897D01*
X132805517Y-82523191D01*
X132805516Y-82523191D01*
X132812444Y-82523935D01*
X132865127Y-82529600D01*
X134484872Y-82529599D01*
X134544483Y-82523191D01*
X134679331Y-82472896D01*
X134794546Y-82386646D01*
X134880796Y-82271431D01*
X134931091Y-82136583D01*
X134937500Y-82076973D01*
X134937499Y-80457228D01*
X134931091Y-80397617D01*
X134900908Y-80316693D01*
X134880797Y-80262771D01*
X134880793Y-80262764D01*
X134794547Y-80147555D01*
X134794544Y-80147552D01*
X134679335Y-80061306D01*
X134679328Y-80061302D01*
X134544482Y-80011008D01*
X134544483Y-80011008D01*
X134484883Y-80004601D01*
X134484881Y-80004600D01*
X134484873Y-80004600D01*
X134484864Y-80004600D01*
X132865129Y-80004600D01*
X132865123Y-80004601D01*
X132805516Y-80011008D01*
X132670671Y-80061302D01*
X132670664Y-80061306D01*
X132555455Y-80147552D01*
X132555452Y-80147555D01*
X132469206Y-80262764D01*
X132469202Y-80262771D01*
X132418908Y-80397616D01*
X132412770Y-80454710D01*
X132386032Y-80519261D01*
X132328639Y-80559109D01*
X132258814Y-80561602D01*
X132198725Y-80525949D01*
X132187906Y-80512577D01*
X132145827Y-80452481D01*
X132087318Y-80393972D01*
X131989620Y-80296274D01*
X131989616Y-80296271D01*
X131989615Y-80296270D01*
X131808666Y-80169568D01*
X131808662Y-80169566D01*
X131761457Y-80147554D01*
X131608450Y-80076206D01*
X131608447Y-80076205D01*
X131608445Y-80076204D01*
X131395070Y-80019030D01*
X131395062Y-80019029D01*
X131175002Y-79999777D01*
X131174998Y-79999777D01*
X130954937Y-80019029D01*
X130954929Y-80019030D01*
X130741554Y-80076204D01*
X130741548Y-80076207D01*
X130541340Y-80169565D01*
X130541338Y-80169566D01*
X130360381Y-80296272D01*
X130262680Y-80393973D01*
X130201356Y-80427457D01*
X130131665Y-80422473D01*
X130087318Y-80393972D01*
X129989621Y-80296275D01*
X129989615Y-80296270D01*
X129808666Y-80169568D01*
X129808662Y-80169566D01*
X129761457Y-80147554D01*
X129608450Y-80076206D01*
X129608447Y-80076205D01*
X129608445Y-80076204D01*
X129395070Y-80019030D01*
X129395062Y-80019029D01*
X129175002Y-79999777D01*
X129174998Y-79999777D01*
X128954937Y-80019029D01*
X128954929Y-80019030D01*
X128741554Y-80076204D01*
X128741548Y-80076207D01*
X128541340Y-80169565D01*
X128541338Y-80169566D01*
X128360377Y-80296275D01*
X128204175Y-80452477D01*
X128077466Y-80633438D01*
X128077462Y-80633445D01*
X128037104Y-80719992D01*
X127990931Y-80772431D01*
X127923738Y-80791582D01*
X127856857Y-80771365D01*
X127812341Y-80719990D01*
X127772100Y-80633693D01*
X127772099Y-80633691D01*
X127726740Y-80568911D01*
X127128779Y-81166872D01*
X127128533Y-81163584D01*
X127077872Y-81034502D01*
X126991414Y-80926087D01*
X126876841Y-80847973D01*
X126772697Y-80815849D01*
X127373187Y-80215358D01*
X127308409Y-80170000D01*
X127308407Y-80169999D01*
X127108284Y-80076680D01*
X127108270Y-80076675D01*
X126894986Y-80019526D01*
X126894976Y-80019524D01*
X126675001Y-80000279D01*
X126674999Y-80000279D01*
X126455023Y-80019524D01*
X126455013Y-80019526D01*
X126241729Y-80076675D01*
X126241720Y-80076679D01*
X126041586Y-80170003D01*
X125976812Y-80215357D01*
X125976811Y-80215358D01*
X126577980Y-80816527D01*
X126537881Y-80822571D01*
X126412946Y-80882737D01*
X126311295Y-80977055D01*
X126241961Y-81097145D01*
X126225149Y-81170802D01*
X125623258Y-80568911D01*
X125623257Y-80568912D01*
X125577903Y-80633686D01*
X125484579Y-80833820D01*
X125484575Y-80833829D01*
X125427426Y-81047113D01*
X125427424Y-81047123D01*
X125408179Y-81267099D01*
X125408179Y-81267100D01*
X119042300Y-81267100D01*
X119042300Y-76468900D01*
X119061985Y-76401861D01*
X119114789Y-76356106D01*
X119166300Y-76344900D01*
X122471916Y-76344900D01*
X122538955Y-76364585D01*
G37*
%TD.AperFunction*%
%TD*%
M02*
